<?xml version="1.0" encoding="UTF-8" standalone="no"?>
<!-- Created with Inkscape (http://www.inkscape.org/) -->

<svg
   xmlns:dc="http://purl.org/dc/elements/1.1/"
   xmlns:cc="http://creativecommons.org/ns#"
   xmlns:rdf="http://www.w3.org/1999/02/22-rdf-syntax-ns#"
   xmlns:svg="http://www.w3.org/2000/svg"
   xmlns="http://www.w3.org/2000/svg"
   xmlns:sodipodi="http://sodipodi.sourceforge.net/DTD/sodipodi-0.dtd"
   xmlns:inkscape="http://www.inkscape.org/namespaces/inkscape"
   version="1.1"
   id="svg99177"
   xml:space="preserve"
   width="800"
   height="800"
   viewBox="0 0 800 800"
   sodipodi:docname="world-map-silhouette.svg"
   inkscape:version="0.92.4 (5da689c313, 2019-01-14)"><metadata
     id="metadata99183"><rdf:RDF><cc:Work
         rdf:about=""><dc:format>image/svg+xml</dc:format><dc:type
           rdf:resource="http://purl.org/dc/dcmitype/StillImage" /><dc:title></dc:title></cc:Work></rdf:RDF></metadata><defs
     id="defs99181"><clipPath
       clipPathUnits="userSpaceOnUse"
       id="clipPath99193"><path
         d="M 0,600 H 600 V 0 H 0 Z"
         id="path99191"
         inkscape:connector-curvature="0" /></clipPath></defs><sodipodi:namedview
     pagecolor="#ffffff"
     bordercolor="#666666"
     borderopacity="1"
     objecttolerance="10"
     gridtolerance="10"
     guidetolerance="10"
     inkscape:pageopacity="0"
     inkscape:pageshadow="2"
     inkscape:window-width="797"
     inkscape:window-height="480"
     id="namedview99179"
     showgrid="false"
     inkscape:zoom="0.295"
     inkscape:cx="400"
     inkscape:cy="400"
     inkscape:window-x="0"
     inkscape:window-y="0"
     inkscape:window-maximized="0"
     inkscape:current-layer="g99185" /><g
     id="g99185"
     inkscape:groupmode="layer"
     inkscape:label="world-map-silhouette"
     transform="matrix(1.3333333,0,0,-1.3333333,0,800)"><g
       id="g99187"><g
         id="g99189"
         clip-path="url(#clipPath99193)"><path
           d="m 555.424,413.379 c 0,0 1.544,0.859 1.544,-0.682 0,-1.543 1.542,-3.258 0.687,-4.458 -0.859,-1.201 -2.058,-1.027 -2.058,-3.943 0,-2.914 0,-2.4 1.883,-4.801 1.887,-2.398 3.085,-0.341 3.429,-2.911 0.345,-2.571 0.685,-2.059 2.572,-3.77 1.886,-1.716 1.54,-1.716 2.915,-2.744 1.371,-1.028 2.056,-2.059 2.056,-0.342 0,1.713 0.171,2.57 0,4.112 -0.172,1.541 1.37,2.744 0.339,5.314 -1.027,2.572 -0.168,2.4 -2.225,4.284 -2.057,1.887 -3.428,-0.344 -4.113,2.399 -0.686,2.743 3.254,3.943 4.286,4.286 1.028,0.342 2.569,2.399 2.911,1.028 0.343,-1.371 -2.569,-6.342 2.4,-1.028 1.591,1.699 2.44,2.627 2.866,3.103 0.518,0.062 2.515,0.279 2.962,-0.017 0.514,-0.342 1.889,1.541 1.37,1.369 -0.512,-0.171 -5.482,2.743 -5.482,2.743 l -3.602,2.057 c 0,0 1.202,0.857 2.059,0.685 0.859,-0.171 1.031,1.712 1.885,1.888 0.857,0.169 6.686,-1.202 7.885,-1.888 1.2,-0.685 5.484,-0.855 4.97,-0.515 -0.515,0.344 -3.253,2.4 -3.428,3.087 -0.169,0.684 -6.171,2.055 -8.054,1.884 -1.888,-0.169 -3.6,-0.685 -5.143,-0.169 -1.544,0.512 -3.772,1.884 -4.971,1.884 -0.332,0 -1.736,0.224 -3.602,0.545 l -6.461,-13.28 z"
           style="fill:#b32423;fill-opacity:1;fill-rule:nonzero;stroke:none"
           id="path99195"
           inkscape:connector-curvature="0" /><path
           d="m 541.639,379.954 c 0.066,0.502 0.107,1.139 -0.098,1.888 -0.36,1.321 0.62,3.144 0.597,4.588 l -2.909,-5.98 z"
           style="fill:#b32423;fill-opacity:1;fill-rule:nonzero;stroke:none"
           id="path99197"
           inkscape:connector-curvature="0" /><path
           d="m 579.936,250.555 c 1.543,0.512 1.028,-1.372 2.228,-0.172 1.202,1.199 2.057,2.226 2.913,2.226 0.857,0 1.543,-0.342 2.06,-1.371 0.511,-1.028 2.738,-1.885 3.765,-3.087 1.032,-1.195 2.573,-1.54 2.916,-2.054 0.341,-0.516 3.6,-0.516 4.627,-0.516 1.029,0 0.172,1.03 -1.027,1.887 -1.2,0.855 -1.717,1.371 -5.315,4.285 -3.6,2.912 -1.201,0.856 -0.856,2.912 0.345,2.06 -0.345,0.517 -1.202,1.371 -0.853,0.86 -0.17,1.373 -1.884,3.256 -1.715,1.889 -0.855,0.859 -2.743,1.544 -1.883,0.683 -2.57,0.516 -3.943,1.715 -0.487,0.426 -1.038,0.656 -1.644,0.83 l -8.064,-5.553 c 0.898,-0.485 0.456,-1.962 0.456,-1.962 0,0 0.342,-1.37 -0.173,-2.399 -0.513,-1.029 0.343,-1.372 1.716,-0.858 1.371,0.514 1.199,-0.514 2.054,-1.199 0.862,-0.683 2.572,-1.37 4.116,-0.855"
           style="fill:#384aa6;fill-opacity:1;fill-rule:nonzero;stroke:none"
           id="path99199"
           inkscape:connector-curvature="0" /><path
           d="m 566.047,241.301 c 0,0 0,1.027 -0.858,1.027 -0.857,0 -1.029,0 -2.914,0.173 -1.886,0.173 -2.398,0.343 -3.087,0.343 -0.682,0 0.689,0.342 -1.199,-0.17 -1.571,-0.432 -2.428,-1.456 -3.367,-2.481 l 11.37,1.025 c 0.033,0.052 0.055,0.083 0.055,0.083"
           style="fill:#384aa6;fill-opacity:1;fill-rule:nonzero;stroke:none"
           id="path99201"
           inkscape:connector-curvature="0" /><path
           d="m 579.762,243.013 c -0.175,0.344 -0.519,2.055 -0.86,0.173 -0.045,-0.248 -0.096,-0.526 -0.15,-0.82 l 1.336,0.121 c -0.142,0.229 -0.262,0.392 -0.326,0.526"
           style="fill:#384aa6;fill-opacity:1;fill-rule:nonzero;stroke:none"
           id="path99203"
           inkscape:connector-curvature="0" /><path
           d="m 551.65,193.991 c 0,-0.856 -0.173,-2.743 -0.173,-2.743 l 2.058,0.175 c 0,0 3.254,2.056 3.771,2.056 0.515,0 1.715,1.711 1.715,0.856 0,-0.856 -1.032,-2.743 -1.372,-3.6 -0.343,-0.859 0.34,-1.885 0.34,-1.885 0,0 1.718,-0.857 1.032,-2.4 -0.688,-1.544 0.171,-1.201 0,-2.399 -0.172,-1.2 0,-0.685 0.684,-1.371 0.686,-0.685 1.886,-1.888 2.914,-1.715 1.028,0.175 1.371,1.198 2.227,0.686 0.858,-0.515 2.572,-0.172 3.085,-0.859 0.517,-0.685 -3.258,-2.395 3.257,0.516 6.512,2.914 7.199,3.598 8.055,4.63 0.861,1.027 1.889,2.055 2.573,2.743 0.684,0.684 0.172,0.511 2.227,2.054 2.056,1.545 2.056,0.857 3.944,3.772 1.886,2.911 3.253,3.942 3.602,4.455 0.34,0.515 1.027,0.686 1.195,2.746 0.172,2.056 1.544,3.938 1.544,4.626 0,0.685 0.516,1.712 0.344,2.913 -0.173,1.201 0.683,2.914 -0.344,4.625 -1.028,1.715 0.516,2.399 -1.028,3.087 -1.507,0.672 -2.523,0.362 -2.888,1.466 l -39.28,-23.721 c 0.314,-0.242 0.518,-0.47 0.518,-0.713"
           style="fill:#3855ae;fill-opacity:1;fill-rule:nonzero;stroke:none"
           id="path99205"
           inkscape:connector-curvature="0" /><path
           d="m 588.156,222.789 c -0.513,3.255 -2.568,3.598 -2.568,3.598 0,0 -2.061,0.856 -1.545,1.199 0.516,0.346 0.685,2.745 0.516,3.432 -0.172,0.683 -0.172,2.226 -0.687,3.254 -0.514,1.028 -0.856,2.398 -1.372,3.599 -0.512,1.198 -1.368,1.544 -1.711,2.914 -0.21,0.832 -0.481,1.348 -0.701,1.702 l -1.336,-0.121 c -0.36,-1.949 -0.879,-4.667 -0.879,-4.667 0,0 -1.37,-2.914 -1.886,-3.771 -0.513,-0.855 -1.028,-3.083 -1.883,-2.91 -0.86,0.168 -1.375,-0.86 -2.06,-0.687 -0.683,0.171 -1.711,-0.173 -2.228,0.343 -0.511,0.512 -1.882,1.884 -2.571,2.055 -0.682,0.171 -1.198,1.543 -1.715,1.543 -0.515,0 -1.37,1.201 -1.198,1.887 0.172,0.684 0.341,2.225 0.514,2.91 0.147,0.595 0.932,1.822 1.146,2.149 l -11.37,-1.025 c -0.186,-0.204 -0.377,-0.408 -0.575,-0.607 -1.196,-1.199 -0.168,-0.857 -1.196,-1.199 -1.031,-0.345 -0.861,0.855 -1.544,-1.028 -0.687,-1.886 0.343,-2.399 -0.175,-2.744 -0.512,-0.343 -4.111,1.2 -4.111,1.2 0,0 0.857,0.172 0.173,1.028 -0.685,0.856 -1.373,2.055 -2.4,1.541 -10e-4,-10e-4 -0.005,-0.002 -0.005,-0.002 l -4.185,-41.323 c 1.307,0.149 2.832,0.55 3.677,0.19 1.198,-0.515 3.082,1.713 3.94,0 0.616,-1.23 2.116,-1.931 2.911,-2.545 l 39.28,23.721 c -0.01,0.026 -0.019,0.05 -0.028,0.076 -0.342,1.201 -1.713,1.029 -2.228,4.288"
           style="fill:#3e65b9;fill-opacity:1;fill-rule:nonzero;stroke:none"
           id="path99207"
           inkscape:connector-curvature="0" /><path
           d="m 575.99,264.606 c -2.227,1.201 -2.572,0.517 -3.083,1.201 -0.516,0.686 -0.857,0.513 -1.887,0.513 -1.029,0 -1.029,0 -1.373,-1.543 -0.342,-1.54 -1.713,-1.54 -2.914,-2.399 -1.201,-0.855 -1.883,-0.34 -2.911,1.372 -1.032,1.716 -1.201,0.859 -1.371,3.942 -0.172,3.086 -2.571,1.372 -3.259,1.202 l 0.003,0.006 c 0,0 -1.889,0.343 -1.713,-0.006 0.17,-0.344 -0.171,-0.517 -0.171,-0.517 l 2.743,-2.057 c 2.741,-2.054 0,-1.711 0,-1.711 0,0 -0.344,-1.203 0.344,-2.058 0.684,-0.856 1.711,-0.513 3.083,-0.856 1.372,-0.343 1.372,-0.343 1.886,-0.514 0.517,-0.173 0.686,-0.173 0.686,-0.173 0,0 1.883,-0.857 3.086,-1.199 1.199,-0.345 1.199,-1.543 2.398,-1.885 0.087,-0.026 0.161,-0.057 0.23,-0.096 l 8.064,5.553 c -1.107,0.318 -2.402,0.451 -3.841,1.225"
           style="fill:#5f97c9;fill-opacity:1;fill-rule:nonzero;stroke:none"
           id="path99209"
           inkscape:connector-curvature="0" /><path
           d="m 540.539,375.357 c 0.864,1.623 1.866,3.401 1.343,3.401 -0.516,0 -0.347,0.438 -0.243,1.196 l -2.41,0.496 z"
           style="fill:#ae876d;fill-opacity:1;fill-rule:nonzero;stroke:none"
           id="path99211"
           inkscape:connector-curvature="0" /><path
           d="m 506.772,296.807 c 0.357,0.423 0.685,0.843 0.956,1.236 l -1.335,-0.664 z"
           style="fill:#77d0ca;fill-opacity:1;fill-rule:nonzero;stroke:none"
           id="path99213"
           inkscape:connector-curvature="0" /><path
           d="m 527.823,269.579 c 0.173,1.199 -0.343,1.199 0.173,1.888 0.512,0.682 1.713,0.512 1.372,1.199 -0.345,0.685 0.341,0.513 -0.345,1.885 -0.683,1.37 -1.543,1.887 -0.857,3.601 0.686,1.712 1.374,2.057 1.202,3.083 -0.172,1.031 0.855,1.372 -0.345,2.571 -1.2,1.2 -1.713,1.544 -2.571,1.887 l -0.844,0.349 -0.011,-0.008 c -0.687,-1.028 -2.915,-4.115 -3.771,-4.286 -0.856,-0.169 -1.716,-1.028 -2.4,-0.855 -0.422,0.104 -1.163,0.078 -1.793,-0.469 l 8.493,-12.812 c 0.812,0.62 1.564,1.035 1.697,1.967"
           style="fill:#77d0ca;fill-opacity:1;fill-rule:nonzero;stroke:none"
           id="path99215"
           inkscape:connector-curvature="0" /><path
           d="m 539.229,380.45 2.909,5.98 c -0.009,0.62 -0.203,1.171 -0.769,1.581 -1.888,1.375 -2.398,2.059 -3.598,4.114 -1.2,2.06 -1.031,2.4 -5.487,2.916 -4.457,0.514 -6.513,-1.028 -7.54,0.343 -1.03,1.371 -1.545,-2.059 -2.228,2.056 -0.688,4.114 1.027,6.856 1.027,6.856 0,0 2.745,1.717 3.428,2.916 0.684,1.2 3.426,1.711 5.657,0.855 2.227,-0.855 5.483,-0.687 8.228,-1.202 2.744,-0.512 2.572,-2.227 3.944,0 1.367,2.23 0,3.258 1.027,4.457 1.028,1.2 2.228,3.087 3.085,1.887 0.854,-1.199 2.572,-2.398 3.944,-0.855 1.372,1.54 1.883,1.712 1.883,1.712 l 0.565,-0.567 6.461,13.28 c -4.861,0.836 -12.869,2.322 -13.364,2.198 -0.688,-0.172 -1.714,-3.427 -2.231,-2.913 -0.515,0.513 -1.37,0.513 -3.77,1.2 -2.399,0.685 -5.657,1.2 -9.944,1.541 -4.283,0.343 -7.194,-0.341 -8.396,1.031 -1.01,1.15 -2.985,0.972 -5.321,0.987 l -28.656,-7.532 z"
           style="fill:#c32424;fill-opacity:1;fill-rule:nonzero;stroke:none"
           id="path99217"
           inkscape:connector-curvature="0" /><path
           d="m 518.739,430.823 c -0.441,0.004 -0.897,0.013 -1.362,0.04 -2.914,0.173 -6.342,0 -7.886,0 -1.543,0 -5.141,0.173 -5.999,0.345 -0.857,0.17 -1.885,1.37 -2.912,1.539 -1.028,0.171 -0.859,0.516 -2.916,0.857 -2.056,0.342 -1.883,2.571 -2.571,0.687 -0.601,-1.658 -0.412,-1.462 -1.053,-1.853 l -3.957,-9.147 z"
           style="fill:#c11e24;fill-opacity:1;fill-rule:nonzero;stroke:none"
           id="path99219"
           inkscape:connector-curvature="0" /><path
           d="m 507.728,298.043 c 0.411,0.601 0.688,1.138 0.734,1.531 0.137,1.25 1.172,1.263 0.107,3.312 l -2.176,-5.507 z"
           style="fill:#a5c87b;fill-opacity:1;fill-rule:nonzero;stroke:none"
           id="path99221"
           inkscape:connector-curvature="0" /><path
           d="m 535.918,372.071 c 2.539,-0.167 3.053,0.173 3.053,0.173 0,0 0.514,-0.343 0.514,0.685 0,0.402 0.499,1.383 1.054,2.428 l -1.31,5.093 z"
           style="fill:#a5c87b;fill-opacity:1;fill-rule:nonzero;stroke:none"
           id="path99223"
           inkscape:connector-curvature="0" /><path
           d="m 531.941,355.103 c 0,-2.913 0,-3.087 1.2,-3.77 1.203,-0.685 2.399,-0.343 3.43,0.515 1.028,0.856 2.74,3.943 2.74,3.943 0,0 0.17,1.199 -2.571,2.911 -2.221,1.39 -3.77,2.443 -4.823,3.248 l -1.69,-4.277 c 0.987,-0.377 1.714,-0.836 1.714,-2.57"
           style="fill:#a5c87b;fill-opacity:1;fill-rule:nonzero;stroke:none"
           id="path99225"
           inkscape:connector-curvature="0" /><path
           d="m 521.828,326.137 c 1.028,0.515 3.943,3.946 4.46,5.486 0.511,1.543 1.883,4.287 1.539,5.485 -0.341,1.201 -2.056,7.026 -2.398,6.858 -0.181,-0.091 -0.22,-0.133 -0.542,0.201 l -7.724,-19.539 c 2.802,0.664 3.654,1.005 4.665,1.509"
           style="fill:#a5c87b;fill-opacity:1;fill-rule:nonzero;stroke:none"
           id="path99227"
           inkscape:connector-curvature="0" /><path
           d="m 494.04,432.438 c -0.089,-0.054 -0.192,-0.121 -0.318,-0.203 -1.028,-0.687 -2.056,-2.059 -2.743,-2.059 -0.278,0 -0.895,-0.029 -1.563,-0.038 l 0.667,-6.847 z"
           style="fill:#c61e25;fill-opacity:1;fill-rule:nonzero;stroke:none"
           id="path99229"
           inkscape:connector-curvature="0" /><path
           d="m 526.799,359.217 c 0,0 0,0.094 -0.005,0.252 -0.264,0.086 0.005,-0.252 0.005,-0.252"
           style="fill:#c1c654;fill-opacity:1;fill-rule:nonzero;stroke:none"
           id="path99231"
           inkscape:connector-curvature="0" /><path
           d="m 468.337,382.19 38.056,-84.811 2.176,5.507 c -0.25,0.483 -0.617,1.076 -1.138,1.827 -2.743,3.942 -2.743,5.316 -5.656,7.716 -2.914,2.399 -4.629,2.569 -2.398,5.654 2.227,3.088 3.258,5.144 4.626,4.287 1.371,-0.86 3.77,-0.688 3.77,-4.116 0,-3.426 -0.686,-7.197 1.716,-3.087 2.108,3.616 3.289,5.906 3.08,5.944 0.481,0.431 1.375,1.256 1.375,1.256 0,0 0.171,1.543 3.086,2.23 0.047,0.011 0.089,0.021 0.133,0.031 l 7.724,19.539 c -0.288,0.298 -0.804,0.895 -1.856,2.026 -2.231,2.4 -3.774,4.112 -4.114,5.142 -0.344,1.027 -1.202,1.2 -0.175,2.572 1.03,1.367 1.547,1.196 1.715,2.399 0.173,1.198 1.543,2.227 -1.027,1.368 -2.573,-0.857 -0.688,-0.341 -2.915,-0.172 -2.228,0.172 -8.053,-1.2 -5.141,2.399 2.913,3.602 3.77,5.829 4.285,5.829 0.515,0 3.086,2.913 3.255,0.173 0.173,-2.743 1.2,-2.055 1.371,-3.772 0.172,-1.714 3.604,1.885 3.604,1.885 0,0 1.195,-0.341 2.053,-1.2 0.7,-0.698 0.829,-2.651 0.852,-3.347 0.157,-0.052 0.501,-0.254 1.204,-0.767 0.764,-0.555 1.557,-0.773 2.229,-1.029 l 1.69,4.277 c -0.247,0.188 -0.467,0.361 -0.661,0.523 -1.027,0.86 -0.684,3.427 0.342,4.459 1.03,1.026 1.543,1.542 1.202,2.913 -0.344,1.371 0.513,2.399 3.083,2.227 0.013,0 0.021,0 0.035,-10e-4 l 3.311,8.379 z"
           style="fill:#c1c654;fill-opacity:1;fill-rule:nonzero;stroke:none"
           id="path99233"
           inkscape:connector-curvature="0" /><path
           d="m 514.285,209.417 c -0.344,-0.855 -1.032,-5.313 -0.688,-6.342 0.344,-1.03 0.856,-4.799 0.515,-6.001 -0.342,-1.197 0.173,-4.97 -0.687,-4.799 -0.856,0.173 -1.196,-0.171 -1.196,-0.683 0,-0.514 1.196,-1.543 1.196,-1.543 0,0 2.06,0 2.915,0.172 0.856,0.172 2.572,1.027 3.943,1.027 1.37,0 2.23,1.032 3.428,1.032 1.199,0 3.772,0.855 4.458,0.511 0.683,-0.34 1.714,2.059 2.912,1.544 0.409,-0.177 0.98,-0.093 1.599,0.095 l -18.078,17.216 c -0.11,-1.099 -0.215,-1.967 -0.317,-2.229"
           style="fill:#4795d7;fill-opacity:1;fill-rule:nonzero;stroke:none"
           id="path99235"
           inkscape:connector-curvature="0" /><path
           d="m 542.223,236.67 c -0.688,-0.855 -0.688,-1.542 -1.2,-2.227 -0.516,-0.683 -1.887,-0.683 -2.06,-1.37 -0.169,-0.688 -0.169,-2.399 -0.684,-2.571 -0.512,-0.171 -0.682,0.684 -1.199,0.854 -0.511,0.172 -0.344,1.544 -0.684,0.685 -0.343,-0.855 -0.684,-0.685 -1.199,-2.056 -0.516,-1.371 -0.688,-2.569 -1.2,-2.742 -0.517,-0.171 0,-0.344 -1.544,-1.199 -1.544,-0.856 -1.885,-0.856 -4.113,-1.887 -2.227,-1.028 -1.713,-1.028 -3.256,-1.2 -1.541,-0.172 -1.887,-0.685 -2.914,-0.855 -1.028,-0.172 -1.713,-0.344 -2.744,-1.372 -1.028,-1.028 -1.883,-1.372 -2.569,-1.544 -0.686,-0.17 -1.341,-0.844 -1.341,-0.844 l -0.037,-0.011 c -0.354,-0.476 -0.629,-4.182 -0.877,-6.685 L 532.68,194.43 c 1.196,0.36 2.582,1.104 3.373,1.104 1.2,0 1.714,1.888 3.085,1.543 0.407,-0.1 0.918,-0.081 1.466,-0.018 l 4.185,41.323 c -1.029,-0.512 -1.884,-0.856 -2.566,-1.712"
           style="fill:#4689cf;fill-opacity:1;fill-rule:nonzero;stroke:none"
           id="path99237"
           inkscape:connector-curvature="0" /><path
           d="m 512.569,265.466 c 0.684,-1.028 1.201,-2.229 2.4,-1.888 1.2,0.347 4.97,0 4.97,0 0,0 1.372,-0.513 2.228,-0.513 0.855,0 1.03,0.341 1.544,0.341 0.511,0 1.539,1.717 1.37,1.887 -0.171,0.173 -0.685,0.687 0.343,1.715 0.229,0.231 0.469,0.426 0.702,0.604 l -8.493,12.812 c -0.399,-0.347 -0.751,-0.898 -0.949,-1.76 -0.515,-2.226 -1.371,-3.431 -1.888,-3.256 -0.515,0.17 0.856,-3.259 -2.054,-1.886 -2.915,1.372 -1.888,-1.201 -2.23,-1.886 -0.341,-0.685 0.513,-2.572 0.685,-3.257 0.172,-0.687 0.686,-1.886 1.372,-2.913"
           style="fill:#4c9edc;fill-opacity:1;fill-rule:nonzero;stroke:none"
           id="path99239"
           inkscape:connector-curvature="0" /><path
           d="m 505.993,295.925 c 0.269,0.29 0.529,0.586 0.779,0.882 l -0.379,0.572 z"
           style="fill:#4c9edc;fill-opacity:1;fill-rule:nonzero;stroke:none"
           id="path99241"
           inkscape:connector-curvature="0" /><path
           d="m 497.659,258.443 c 0.684,-1.03 2.737,-2.055 2.737,-2.055 0,0 0.863,0.171 1.89,1.371 1.027,1.198 0.683,2.569 0.683,3.084 0,0.513 -1.199,2.057 -1.367,2.569 -0.173,0.517 -0.689,1.887 -1.372,2.4 -0.526,0.394 -1.052,1.194 -1.808,2.546 l -2.194,-7.989 c 0.559,-0.77 1.024,-1.32 1.431,-1.926"
           style="fill:#4c9edc;fill-opacity:1;fill-rule:nonzero;stroke:none"
           id="path99243"
           inkscape:connector-curvature="0" /><path
           d="M 539.229,380.45 490.083,423.291 468.337,382.19 Z"
           style="fill:#ce551e;fill-opacity:1;fill-rule:nonzero;stroke:none"
           id="path99245"
           inkscape:connector-curvature="0" /><path
           d="m 405.055,351.745 7.857,-21.575 0.932,-0.085 c 0,0 2.747,-1.54 3.431,-1.54 0.683,0 0.856,-1.886 2.57,-2.914 1.713,-1.031 2.056,-1.2 3.084,-2.4 1.031,-1.199 0.855,-1.715 2.228,-2.914 1.373,-1.2 3.602,0.172 3.945,0.684 0.341,0.515 2.056,1.371 1.712,0 -0.343,-1.371 1.715,-0.856 1.199,-4.115 -0.512,-3.255 -0.855,-2.398 0,-4.625 0.821,-2.136 4.316,-8.52 4.757,-10.858 l 31.567,80.787 z"
           style="fill:#d2e747;fill-opacity:1;fill-rule:nonzero;stroke:none"
           id="path99247"
           inkscape:connector-curvature="0" /><path
           d="m 487.547,278.67 c -0.86,1.028 -1.888,3.943 -3.26,3.768 -1.37,-0.172 -2.227,0.687 -2.227,0.687 l -0.012,-0.004 -0.503,-0.164 c 0,0 1.2,-1.547 1.715,-2.232 0.512,-0.686 0.344,-1.713 1.54,-2.914 1.203,-1.199 1.375,-2.226 2.059,-2.572 0.688,-0.343 2.059,-3.426 2.571,-4.454 0.514,-1.027 1.543,-2.058 2.228,-3.087 0.686,-1.027 2.058,-3.255 3.259,-5.313 0.489,-0.842 0.924,-1.482 1.311,-2.016 l 2.194,7.989 c -0.231,0.414 -0.483,0.877 -0.763,1.4 -1.202,2.227 0,0 -2.572,3.597 -2.571,3.6 -2.401,1.373 -4.285,2.573 -1.884,1.199 -2.401,1.71 -3.255,2.742"
           style="fill:#88d7d3;fill-opacity:1;fill-rule:nonzero;stroke:none"
           id="path99249"
           inkscape:connector-curvature="0" /><path
           d="m 486.349,293.575 c 0.341,-2.058 1.54,-2.743 1.373,-3.087 0,0 0.661,1.878 0.745,3.683 l -2.153,-0.386 c 0.012,-0.068 0.024,-0.135 0.035,-0.21"
           style="fill:#88d7d3;fill-opacity:1;fill-rule:nonzero;stroke:none"
           id="path99251"
           inkscape:connector-curvature="0" /><path
           d="m 496.257,295.565 c 0.573,-0.356 0.973,-0.522 1.06,-1.132 0.172,-1.201 1.033,-1.374 2.229,-2.4 1.198,-1.028 2.229,0.168 3.601,1.199 0.633,0.475 1.78,1.537 2.846,2.693 l 0.4,1.454 z"
           style="fill:#88d7d3;fill-opacity:1;fill-rule:nonzero;stroke:none"
           id="path99253"
           inkscape:connector-curvature="0" /><path
           d="M 468.337,382.19 436.77,301.403 c 0.02,-0.102 0.035,-0.198 0.042,-0.284 0.174,-2.057 1.2,-1.37 1.373,-3.258 0.17,-1.883 1.198,-2.569 1.198,-3.943 0,-1.37 1.203,-1.711 1.372,-2.742 0.175,-1.029 2.058,-0.171 2.57,0 0.516,0.172 2.916,2.399 2.916,2.399 0,0 1.03,0.343 0.855,2.06 -0.172,1.711 0,1.37 0,3.941 0,2.57 -1.028,2.57 -0.511,5.139 0.511,2.572 1.883,4.115 2.227,5.314 0.343,1.2 1.714,3.256 2.399,3.431 0.684,0.168 4.458,2.056 5.313,3.255 0.857,1.2 2.227,2.571 3.599,3.942 1.372,1.368 3.772,3.083 4.285,2.572 0.516,-0.515 0.345,-0.344 1.201,-0.344 0.858,0 2.4,-0.687 3.599,-0.86 1.198,-0.168 3.602,-3.083 4.114,-4.625 0.516,-1.544 0.172,-1.201 2.058,-3.428 1.885,-2.228 3.599,-0.857 3.599,-3.598 0,-2.743 0,-2.572 0.856,-3.599 0.86,-1.031 1.888,1.883 2.915,1.54 1.028,-0.344 1.201,0.343 2.056,-2.399 0.855,-2.745 1.372,-2.745 1.543,-5.487 0.172,-2.742 -0.171,-0.171 -0.171,-2.4 0,-2.145 -0.158,-2.387 0.136,-4.244 l 2.153,0.386 c 0.02,0.443 0.006,0.883 -0.062,1.289 -0.342,2.055 0,4.969 0.856,5.826 0.858,0.86 1.717,1.715 2.399,-0.513 0.686,-2.227 1.03,-0.515 2.571,-3.086 0.758,-1.261 1.473,-1.78 2.026,-2.122 l 10.136,1.814 z"
           style="fill:#a9dc65;fill-opacity:1;fill-rule:nonzero;stroke:none"
           id="path99255"
           inkscape:connector-curvature="0" /><path
           d="m 413.124,436.871 c -0.528,-0.09 -1.084,-0.151 -1.673,-0.181 -3.43,-0.172 -3.601,0.343 -6.856,-0.857 -3.256,-1.198 -5.315,0.344 -4.627,-2.398 0.683,-2.744 1.543,-3.771 1.543,-4.284 0,-0.515 -1.543,-3.942 -3.432,-1.887 -0.403,0.441 -0.878,1.157 -1.359,1.957 l 0.085,-2.871 c 0.624,-1.157 0.865,-1.875 0.071,-2.353 l 0.133,-4.404 z"
           style="fill:#e02324;fill-opacity:1;fill-rule:nonzero;stroke:none"
           id="path99257"
           inkscape:connector-curvature="0" /><path
           d="m 490.083,423.291 -0.667,6.847 c -0.98,-0.016 -2.071,0.006 -2.379,0.21 -0.514,0.343 -1.372,0.688 -3.084,0.688 -1.716,0 -1.716,-0.173 -3.943,0.172 -2.228,0.34 -3.941,0.17 -6,1.199 -2.057,1.028 -2.057,1.711 -3.771,1.539 -1.714,-0.171 -1.714,0.345 -4.112,0.345 -2.398,0 -5.314,-1.373 -6.856,-1.544 -1.541,-0.169 -4.972,0.171 -6.169,0.688 -1.203,0.511 -1.544,1.712 -5.998,1.2 -4.46,-0.517 -7.031,-0.517 -6.174,0.855 0.858,1.372 1.885,2.743 2.398,2.915 0.516,0.172 1.715,1.028 0.858,1.372 -0.858,0.343 -1.713,0.855 -3.77,1.027 -2.057,0.173 -1.886,-0.684 -4.97,-0.344 -3.086,0.344 1.713,1.2 -4.626,1.029 -6.341,-0.172 -7.885,-0.685 -8.573,-0.685 -0.684,0 -1.543,1.372 -3.253,-0.684 -1.423,-1.705 -3.315,-2.819 -5.87,-3.249 l -16.115,-17.278 z"
           style="fill:#dd2824;fill-opacity:1;fill-rule:nonzero;stroke:none"
           id="path99259"
           inkscape:connector-curvature="0" /><path
           d="m 490.083,423.291 -93.074,-3.698 71.328,-37.403 z"
           style="fill:#df4f1e;fill-opacity:1;fill-rule:nonzero;stroke:none"
           id="path99261"
           inkscape:connector-curvature="0" /><path
           d="m 468.337,382.19 -71.328,37.403 8.046,-67.848 z"
           style="fill:#e77618;fill-opacity:1;fill-rule:nonzero;stroke:none"
           id="path99263"
           inkscape:connector-curvature="0" /><path
           d="m 393.816,334.704 c 0.837,-0.317 1.175,0.51 1.515,-0.848 0.344,-1.371 2.231,-1.543 3.087,-2.398 0.856,-0.857 0.856,-0.516 3.086,-0.857 2.227,-0.343 5.313,-0.343 5.313,-0.343 l 3.257,0.172 2.838,-0.26 -7.857,21.575 z"
           style="fill:#d4ea64;fill-opacity:1;fill-rule:nonzero;stroke:none"
           id="path99265"
           inkscape:connector-curvature="0" /><path
           d="m 373.442,301.558 3.04,0.758 c 0,0 6.168,3.946 6.852,3.946 0.685,0 6.173,2.568 6.173,2.568 0,0 2.228,2.055 3.768,3.256 1.544,1.202 3.259,3.43 3.602,4.457 0.342,1.028 1.028,1.2 2.399,2.743 1.372,1.542 3.255,3.086 2.057,4.115 -1.201,1.027 -1.887,0.683 -3.601,2.399 -1.713,1.712 -1.542,1.371 -2.742,3.598 -1.198,2.227 0.172,4.798 -2.398,2.227 -2.149,-2.148 -1.786,-2.979 -3.108,-3.494 l -17.267,-26.186 z"
           style="fill:#d4ea64;fill-opacity:1;fill-rule:nonzero;stroke:none"
           id="path99267"
           inkscape:connector-curvature="0" /><path
           d="m 367.735,214.731 2.23,-3.426 c 0,0 0.683,0.511 2.055,0.511 1.372,0 2.744,1.201 2.744,1.201 0,0 1.544,-0.341 1.371,1.544 -0.172,1.885 0.686,4.113 0.511,4.629 -0.167,0.512 1.544,2.743 1.544,3.254 0,0.516 1.715,2.911 1.715,3.771 0,0.857 1.199,2.227 1.37,3.257 0.173,1.03 0.345,3.426 0.687,4.112 0.343,0.685 0.514,1.372 0.514,2.057 v 2.058 l -0.18,0.558 -14.624,-20.202 c 0.063,-1.487 0.063,-3.324 0.063,-3.324"
           style="fill:#5bc3f0;fill-opacity:1;fill-rule:nonzero;stroke:none"
           id="path99269"
           inkscape:connector-curvature="0" /><path
           d="m 334.742,196.379 c 0.308,0.303 0.666,0.642 1.114,1.039 1.54,1.371 1.373,1.371 2.399,2.228 1.027,0.859 2.057,2.746 3.256,3.085 1.199,0.344 1.544,1.544 1.887,2.4 0.343,0.859 0.513,1.372 1.028,2.059 0.514,0.683 0.171,-0.176 1.028,2.057 0.859,2.227 1.887,3.083 2.745,3.597 0.857,0.515 1.367,1.545 1.885,1.717 0.511,0.17 1.371,-0.516 1.027,1.026 -0.341,1.544 0,3.771 -0.341,4.284 -0.343,0.518 -0.859,-1.197 -0.686,1.373 0.129,1.956 1.249,3.91 1.779,4.735 l -20.311,-13.845 z"
           style="fill:#9bddcb;fill-opacity:1;fill-rule:nonzero;stroke:none"
           id="path99271"
           inkscape:connector-curvature="0" /><path
           d="m 381.259,241.476 0.01,-0.032 c 0.002,0.009 0.004,0.018 0.006,0.027 z"
           style="fill:#9bddcb;fill-opacity:1;fill-rule:nonzero;stroke:none"
           id="path99273"
           inkscape:connector-curvature="0" /><path
           d="m 378.873,236.843 -3.427,-1.715 c 0,0 -1.199,-1.027 -1.883,-1.2 -0.686,-0.168 -2.401,-1.028 -2.401,-1.028 0,0 -1.542,0.344 -1.028,-1.199 0.514,-1.541 0.686,-3.426 0.514,-3.942 -0.17,-0.513 -0.17,-1.544 -0.17,-2.915 0,-1.369 -0.513,-3.084 -1.373,-3.427 -0.856,-0.342 -1.715,-0.685 -1.542,-1.884 0.049,-0.343 0.084,-0.883 0.109,-1.478 l 14.624,20.202 -1.027,3.187 c -0.524,-1.882 -2.396,-4.601 -2.396,-4.601"
           style="fill:#9bddcb;fill-opacity:1;fill-rule:nonzero;stroke:none"
           id="path99275"
           inkscape:connector-curvature="0" /><path
           d="m 405.055,351.745 -8.046,67.848 -27.836,-55.017 z"
           style="fill:#f27c15;fill-opacity:1;fill-rule:nonzero;stroke:none"
           id="path99277"
           inkscape:connector-curvature="0" /><path
           d="m 372.511,301.325 0.931,0.233 -1.225,0.387 z"
           style="fill:#bae5a8;fill-opacity:1;fill-rule:nonzero;stroke:none"
           id="path99279"
           inkscape:connector-curvature="0" /><path
           d="m 381.107,286.719 c 0,0 1.884,2.23 2.227,3.428 0.344,1.201 2.057,7.887 1.713,7.541 -0.34,-0.342 -2.397,-0.683 -3.083,-0.854 -0.684,-0.172 1.03,-0.856 -3.943,-0.516 -1.2,0.082 -2.259,0.095 -3.178,0.067 l 5.22,-11.054 c 0.455,0.651 1.044,1.388 1.044,1.388"
           style="fill:#bae5a8;fill-opacity:1;fill-rule:nonzero;stroke:none"
           id="path99281"
           inkscape:connector-curvature="0" /><path
           d="m 367.041,425.731 c -1.141,-0.191 -2.609,-1.108 -3.241,-0.35 -0.612,0.734 -2.532,0.943 -3.831,0.63 l 2.027,-16.637 z"
           style="fill:#ee2d21;fill-opacity:1;fill-rule:nonzero;stroke:none"
           id="path99283"
           inkscape:connector-curvature="0" /><path
           d="m 394.31,431.891 c 0.711,-2.528 1.823,-4.291 2.495,-5.541 l -0.085,2.871 c -1.767,2.931 -3.623,6.98 -2.41,2.67"
           style="fill:#ef2f21;fill-opacity:1;fill-rule:nonzero;stroke:none"
           id="path99285"
           inkscape:connector-curvature="0" /><path
           d="m 397.009,419.593 -0.133,4.404 c -0.208,-0.125 -0.486,-0.235 -0.852,-0.331 -3.257,-0.859 -2.914,0.341 -3.429,0.684 -0.513,0.344 0,2.742 -0.172,4.114 -0.173,1.372 -0.513,2.227 -1.2,2.914 -0.684,0.685 -0.515,1.713 -1.884,2.057 -1.371,0.343 -0.171,1.03 -2.399,1.03 -2.23,0 -4.115,1.368 -3.598,-1.715 0.512,-3.086 1.024,-1.027 2.394,-3.943 1.373,-2.913 3.943,-0.855 2.059,-2.913 -1.886,-2.057 -6.856,-1.372 -8.056,-0.513 -1.199,0.855 -0.855,-0.344 -3.087,1.199 -2.228,1.544 -1.54,2.743 -4.111,1.544 -2.572,-1.203 -3.428,-3.43 -4.457,-2.572 -0.271,0.226 -0.637,0.248 -1.043,0.179 l -5.045,-16.357 z"
           style="fill:#ef2f21;fill-opacity:1;fill-rule:nonzero;stroke:none"
           id="path99287"
           inkscape:connector-curvature="0" /><path
           d="m 397.009,419.593 -35.013,-10.219 7.177,-44.798 z"
           style="fill:#f36618;fill-opacity:1;fill-rule:nonzero;stroke:none"
           id="path99289"
           inkscape:connector-curvature="0" /><path
           d="m 369.173,364.576 3.044,-62.631 17.267,26.186 c -0.26,-0.102 -0.584,-0.191 -1.006,-0.276 -2.572,-0.512 -3.601,-2.227 -4.8,-0.512 -1.199,1.711 -2.398,0.685 -3.086,3.255 -0.683,2.572 -1.199,2.744 -1.371,3.77 -0.169,1.029 0,1.029 -1.371,3.603 -1.368,2.568 -0.342,6.51 0.515,4.283 0.856,-2.228 2.227,-2.572 4.457,-4.114 2.225,-1.542 3.256,-2.743 5.312,-2.913 2.058,-0.172 3.771,0 4.114,-0.343 0.344,-0.343 0.685,0.171 1.544,-0.172 0.008,-0.003 0.018,-0.006 0.024,-0.008 l 11.239,17.041 z"
           style="fill:#eddd30;fill-opacity:1;fill-rule:nonzero;stroke:none"
           id="path99291"
           inkscape:connector-curvature="0" /><path
           d="m 340.661,416.64 c -1.2,1.883 -7.716,5.142 -5.142,5.654 2.571,0.516 3.77,1.543 5.142,0.344 1.372,-1.199 3.599,-0.856 3.94,0 0.343,0.856 1.888,1.714 -0.169,2.743 -2.059,1.028 -2.231,0.343 -5.486,1.543 -3.258,1.2 0,0.856 -4.458,1.542 -4.456,0.685 -6.342,1.026 -7.542,1.37 -1.199,0.343 -2.914,0 -4.626,0.172 -1.716,0.171 -2.915,0.515 -4.458,0.343 -1.54,-0.172 -2.399,0.172 -4.455,-1.371 -1.528,-1.146 -2.772,-1.821 -3.871,-2.582 l 31.583,-10.249 c -0.165,0.11 -0.318,0.269 -0.458,0.491"
           style="fill:#f14f1b;fill-opacity:1;fill-rule:nonzero;stroke:none"
           id="path99293"
           inkscape:connector-curvature="0" /><path
           d="m 341.661,415.973 20.335,-6.599 -2.027,16.637 c -0.522,-0.126 -0.944,-0.335 -1.139,-0.63 -0.687,-1.031 -2.744,-0.859 -5.658,-2.231 -2.913,-1.368 -2.059,-0.168 -5.656,-3.084 -2.751,-2.226 -4.602,-4.15 -5.855,-4.093"
           style="fill:#f14f1b;fill-opacity:1;fill-rule:nonzero;stroke:none"
           id="path99295"
           inkscape:connector-curvature="0" /><path
           d="m 362.876,263.815 c 0.512,0.631 0.923,1.137 0.923,1.137 0,0 3.427,3.942 4.624,5.826 1.201,1.888 2.4,3.599 3.258,4.284 0.858,0.688 2.913,2.232 4.112,3.946 1.2,1.712 3.6,4.969 3.771,5.483 0.059,0.178 0.261,0.496 0.499,0.84 l -5.22,11.054 c -2.884,-0.088 -4.364,-0.582 -4.364,-0.582 -1.541,0.343 -2.742,-1.368 -3.253,1.031 -0.279,1.297 -0.509,2.293 -0.824,3.205 l -61.164,-20.058 z"
           style="fill:#d2ea78;fill-opacity:1;fill-rule:nonzero;stroke:none"
           id="path99297"
           inkscape:connector-curvature="0" /><path
           d="m 371.27,301.635 c 0.603,-0.208 1.096,-0.346 1.096,-0.346 l 0.145,0.036 -0.294,0.62 z"
           style="fill:#d2ea78;fill-opacity:1;fill-rule:nonzero;stroke:none"
           id="path99299"
           inkscape:connector-curvature="0" /><path
           d="m 331.552,212.134 20.311,13.845 c 0.166,0.259 0.276,0.408 0.276,0.408 0,0 2.57,3.256 3.429,3.771 0.856,0.511 1.03,1.028 2.229,1.715 1.198,0.683 3.769,2.396 3.769,3.255 0,0.856 1.032,3.087 1.032,3.599 0,0.515 0,1.028 -0.343,3.942 -0.345,2.912 0.343,2.227 -0.689,4.972 -1.027,2.742 -1.199,6.17 -1.883,7.028 -0.688,0.855 -0.344,3.086 -0.344,3.771 0,0.684 1.2,2.398 1.717,3.083 0.291,0.392 1.143,1.454 1.82,2.292 l -57.638,16.166 z"
           style="fill:#c6e9b1;fill-opacity:1;fill-rule:nonzero;stroke:none"
           id="path99301"
           inkscape:connector-curvature="0" /><path
           d="m 284.514,369.273 0.61,0.916 c 0,0 1.714,1.883 2.57,1.712 0.855,-0.172 5.655,-1.884 5.313,0.343 -0.343,2.229 0.343,2.915 0.856,2.055 0.516,-0.855 1.888,-0.511 1.888,-0.511 0,0 0.683,0.34 1.2,-0.172 0.512,-0.512 1.199,-2.742 2.227,-3.257 1.028,-0.514 1.884,-1.029 2.571,-1.37 0.685,-0.343 1.371,0 2.742,-1.202 1.372,-1.2 2.742,-1.884 2.912,-2.4 0.175,-0.512 1.374,-1.712 1.374,-1.712 0,0 1.2,-0.342 0.856,-1.031 -0.343,-0.684 -2.055,-2.743 -2.914,-3.083 -0.856,-0.344 -3.083,0.343 -2.228,-0.344 0.856,-0.684 2.058,-1.543 2.572,-1.028 0.515,0.516 3.77,3.942 3.77,3.942 0,0 -0.172,-0.171 0,0.86 0.172,1.025 0,2.227 0.856,1.712 0.859,-0.515 1.373,-1.2 1.715,-0.515 0.343,0.687 0.684,0.344 -0.173,0.855 -0.858,0.517 -2.913,3.431 -3.941,3.603 -1.027,0.171 -3.6,1.883 -3.6,1.883 0,0 -0.514,0.515 -1.713,1.888 -1.201,1.371 -1.543,1.027 -1.888,2.227 -0.208,0.735 -0.676,1.6 -0.572,2.079 l -19.547,3.51 z"
           style="fill:#f9cf08;fill-opacity:1;fill-rule:nonzero;stroke:none"
           id="path99303"
           inkscape:connector-curvature="0" /><path
           d="m 304.91,376.114 c 0.807,-0.491 1.576,-1.09 2.493,-1.641 1.715,-1.029 1.371,-1.369 2.915,-2.401 1.543,-1.028 1.714,-2.055 2.913,-1.883 1.201,0.17 2.573,-0.688 2.573,-2.231 0,-1.539 0.341,-3.255 0.683,-3.598 0.345,-0.344 1.372,-1.027 1.716,-1.716 0.341,-0.684 1.027,-2.398 1.541,-3.083 0.516,-0.683 1.029,-1.2 1.543,-2.059 0.515,-0.855 0.686,0.172 1.198,-0.169 0.517,-0.343 1.201,-0.171 1.201,0.514 0,0.686 0.171,1.885 0.171,1.885 0,0 2.4,0.685 1.715,1.029 -0.687,0.344 -2.742,2.399 -2.57,3.087 0.171,0.684 0,2.055 0.855,1.882 0.857,-0.17 1.715,-1.714 3.599,-0.343 1.888,1.375 4.115,2.058 3.426,0 -0.684,-2.054 0.176,-2.396 0,-4.626 -0.167,-2.228 0.689,-1.544 1.891,-2.742 1.196,-1.202 2.055,-1.372 2.913,-1.717 0.854,-0.343 2.227,-0.172 3.596,-0.343 1.373,-0.168 2.232,0.515 3.431,0.171 1.198,-0.339 3.94,0.172 4.456,-0.171 0.515,-0.34 2.571,0.688 2.742,-0.512 0.173,-1.2 0.859,0.172 0.344,-2.572 -0.515,-2.742 -1.199,-4.625 -1.199,-4.625 -1.887,-3.603 -2.573,-4.459 -3.431,-4.631 -0.854,-0.172 -1.368,-0.683 -2.912,-0.513 -1.542,0.173 -3.426,0 -5.657,0.513 -2.228,0.515 -6.341,-0.513 -8.053,0.515 -1.716,1.03 -4.114,0.172 -5.146,1.372 -1.027,1.2 -2.74,1.028 -3.427,1.712 -0.685,0.688 -1.028,2.571 -1.028,-0.172 0,-2.742 -1.543,-2.912 -1.884,-4.282 -0.343,-1.372 0.512,-0.687 -1.373,-0.516 -1.884,0.171 -2.4,-0.856 -5.143,1.199 -2.743,2.057 -4.112,2.057 -5.481,2.916 -1.374,0.855 -2.745,-1.544 -4.116,1.198 -1.372,2.744 -3.255,0.514 -3.426,2.744 -0.174,2.227 0,2.055 0.171,3.426 0.171,1.372 2.056,2.571 1.199,3.084 -0.859,0.515 -0.171,1.372 -1.37,0.859 -1.201,-0.515 -2.916,-0.687 -4.287,-1.2 -1.372,-0.515 3.086,0 -3.599,-0.515 -0.898,-0.069 -1.707,-0.142 -2.439,-0.214 l 17.584,-75.764 41.436,54.824 c -0.51,0.96 -0.906,1.651 -1.045,1.79 -0.516,0.517 -1.372,3.259 -1.203,2.744 0.175,-0.512 2.573,-2.227 2.573,-2.227 0,0 1.239,0.466 1.804,0.511 l 20.37,26.953 z"
           style="fill:#f9cf08;fill-opacity:1;fill-rule:nonzero;stroke:none"
           id="path99305"
           inkscape:connector-curvature="0" /><path
           d="m 369.173,364.576 -20.37,-26.953 c 0.027,0.002 0.055,0.003 0.08,0.003 0.516,0 2.572,-1.886 2.572,-2.571 0,-0.687 3.602,-3.941 4.457,-6.342 0.856,-2.399 1.888,-4.113 2.056,-4.801 0.173,-0.683 1.886,-3.427 2.571,-4.454 0.688,-1.032 2.916,-3.087 3.255,-4.114 0.344,-1.028 3.602,-4.459 3.602,-6.686 0,-2.228 1.542,-5.139 1.712,-5.825 0.106,-0.413 1.256,-0.885 2.162,-1.198 l 0.947,0.31 z"
           style="fill:#f1ef1b;fill-opacity:1;fill-rule:nonzero;stroke:none"
           id="path99307"
           inkscape:connector-curvature="0" /><path
           d="m 366.402,300.039 c -0.265,0.775 -0.591,1.491 -1.064,2.277 -1.028,1.715 -1.714,2.399 -3.255,4.63 -1.544,2.228 -1.373,1.199 -2.744,2.912 -1.371,1.714 -1.714,1.202 -2.571,3.43 -0.856,2.228 -1.543,1.368 -2.57,4.455 -1.027,3.085 -1.716,3.431 -2.227,5.142 -0.516,1.715 -1.201,2.231 -1.544,3.771 -0.249,1.121 -2.403,5.592 -3.753,8.149 l -41.436,-54.824 z"
           style="fill:#f1ef1b;fill-opacity:1;fill-rule:nonzero;stroke:none"
           id="path99309"
           inkscape:connector-curvature="0" /><path
           d="m 361.996,409.374 -80.026,-29.141 19.547,-3.51 c 0.065,0.303 0.357,0.452 1.087,0.32 0.877,-0.158 1.606,-0.503 2.306,-0.929 l 64.263,-11.538 z"
           style="fill:#f79310;fill-opacity:1;fill-rule:nonzero;stroke:none"
           id="path99311"
           inkscape:connector-curvature="0" /><path
           d="m 361.996,409.374 -20.335,6.599 c -0.194,0.009 -0.375,0.065 -0.542,0.176 l -31.583,10.249 c -0.382,-0.262 -0.747,-0.537 -1.098,-0.846 -1.374,-1.2 -4.971,-3.601 -5.999,-4.457 -1.031,-0.857 -4.629,-3.599 -4.974,-4.629 -0.34,-1.029 0.345,-1.885 -1.027,-2.57 -1.371,-0.687 -2.743,-0.687 -3.771,-0.859 -1.028,-0.17 0,1.544 -1.03,-0.17 -1.029,-1.713 -0.685,-7.884 0.17,-7.027 0.86,0.859 0.344,3.599 4.115,1.028 3.771,-2.572 6.174,-2.227 5.998,-4.627 -0.169,-2.399 2.571,-2.227 2.916,-2.742 0.343,-0.513 2.054,0.683 2.054,0.683 0,0 3.774,2.403 3.774,3.599 0,1.202 2.399,3.944 2.399,3.944 0,0 -1.714,0.858 -1.714,2.57 0,1.715 0.514,2.231 0.855,3.946 0.344,1.712 -1.883,-0.003 3.259,3.255 5.14,3.254 5.482,1.027 5.482,1.027 0,0 0.685,-0.684 -0.172,-1.714 -0.855,-1.028 -2.398,-3.772 -2.743,-4.112 -0.342,-0.343 1.544,-3.087 2.4,-3.087 0.859,0 2.572,0.687 3.602,0.516 1.027,-0.171 2.739,0.512 3.255,0.169 0.516,-0.34 1.716,-1.368 0.858,-2.228 -0.858,-0.855 -2.744,-1.884 -4.113,-1.542 -1.376,0.343 -3.429,2.742 -2.23,-0.685 1.2,-3.427 -0.172,-4.286 -1.199,-4.114 -1.029,0.17 -3.256,1.883 -2.915,-0.687 0.342,-2.569 -2.228,-4.284 -2.741,-4.284 -0.515,0 -1.543,0.172 -1.543,0.172 0,0 -1.543,0.172 -2.399,0.172 -0.859,0 -2.572,-0.856 -3.087,-1.544 -0.515,-0.683 -1.199,-0.171 -2.055,-0.171 -0.856,0 0,1.028 -1.716,1.371 -1.711,0.344 -2.742,0.685 -3.771,0 -1.027,-0.683 -2.571,-1.028 -3.255,-0.512 -0.687,0.512 0.344,1.715 -1.03,1.028 -1.368,-0.687 -2.399,-2.571 -2.911,-2.744 -0.516,-0.171 1.543,0 -0.516,-0.171 -2.056,-0.171 -2.912,-0.688 -3.943,-1.028 -1.027,-0.343 0.344,-2.399 -1.543,-3.085 -1.884,-0.685 -0.511,0.855 -2.399,-0.685 -1.068,-0.875 -1.64,-1.694 -2.061,-2.271 l -0.748,-7.054 z"
           style="fill:#f68612;fill-opacity:1;fill-rule:nonzero;stroke:none"
           id="path99313"
           inkscape:connector-curvature="0" /><path
           d="m 305.238,279.981 -2.425,-22.697 c 0.135,-0.316 0.293,-0.665 0.475,-1.075 0.689,-1.54 1.543,-1.713 1.716,-3.427 0.172,-1.715 0.513,-1.715 0.342,-2.915 -0.17,-1.199 -0.685,-1.371 -0.17,-2.226 0.512,-0.858 1.196,-2.4 1.028,-2.915 -0.173,-0.513 -0.516,-2.744 -0.516,-2.744 l -0.342,-1.027 -1.543,-2.915 -1.027,-1.54 c -0.342,-1.2 -1.031,-2.399 -0.859,-4.115 0.172,-1.716 -0.855,-1.711 0.517,-3.427 1.369,-1.715 2.053,-3.603 2.912,-5.143 0.858,-1.543 1.37,-3.085 1.543,-4.113 0.171,-1.028 0.858,-1.371 1.199,-2.743 0.151,-0.601 0.267,-1.072 0.352,-1.48 l 23.112,-3.345 z"
           style="fill:#c5e56e;fill-opacity:1;fill-rule:nonzero;stroke:none"
           id="path99315"
           inkscape:connector-curvature="0" /><path
           d="m 308.44,215.479 c 0.109,-0.525 0.163,-0.952 0.163,-1.432 0,-0.859 -0.172,-3.087 0.171,-3.602 0.341,-0.511 0.513,-2.055 0.685,-2.742 0.161,-0.642 -0.435,-0.834 0.344,-1.845 l 14.974,-14.65 c 0.151,0.023 0.302,0.04 0.452,0.04 0.856,0 1.715,1.027 2.571,1.027 0.855,0 2.055,1.372 2.743,1.03 0.687,-0.342 1.543,0.342 2.398,1.202 0.612,0.607 1.048,1.13 1.801,1.872 l -3.19,15.755 z"
           style="fill:#9bda8d;fill-opacity:1;fill-rule:nonzero;stroke:none"
           id="path99317"
           inkscape:connector-curvature="0" /><path
           d="m 309.974,205.646 c 1.028,-1.198 1.713,-1.886 2.399,-2.742 0.684,-0.859 0.514,-0.515 1.028,-1.715 0.515,-1.2 1.2,-1.886 1.371,-2.913 0.173,-1.029 0.343,-3.596 0.857,-4.8 0.516,-1.201 1.199,-2.398 1.199,-2.398 0,0 1.887,-1.202 2.574,-1.029 0.684,0.172 2.056,1.712 3.083,1.199 0.85,-0.426 1.581,-0.149 2.292,-0.04 l -14.974,14.65 c 0.051,-0.067 0.108,-0.137 0.171,-0.212"
           style="fill:#9ad97e;fill-opacity:1;fill-rule:nonzero;stroke:none"
           id="path99319"
           inkscape:connector-curvature="0" /><path
           d="m 266.586,354.253 c 0,0 0.004,-0.006 0.01,-0.016 l 0.01,0.014 z"
           style="fill:#facc09;fill-opacity:1;fill-rule:nonzero;stroke:none"
           id="path99321"
           inkscape:connector-curvature="0" /><path
           d="m 267.255,356.918 c 0.327,-0.069 0.684,-0.199 1.07,-0.439 1.371,-0.86 2.742,-1.205 3.599,-0.173 0.856,1.027 4.286,2.227 5.313,3.255 1.031,1.028 1.716,1.372 1.2,2.399 -0.512,1.028 1.031,3.6 1.888,4.115 0.854,0.512 2.742,1.028 2.742,1.028 l 1.447,2.17 -2.544,10.96 z"
           style="fill:#facc09;fill-opacity:1;fill-rule:nonzero;stroke:none"
           id="path99323"
           inkscape:connector-curvature="0" /><path
           d="m 287.654,355.745 c -4.716,-0.473 -6.133,-0.985 -6.133,-0.985 0,0 -0.513,0.343 -1.372,-0.345 -0.856,-0.684 -2.056,-1.711 -3.255,-1.198 -1.2,0.514 -1.887,0.343 -2.915,0.172 -1.027,-0.172 -1.712,0.854 -2.912,0 -1.199,-0.857 -2.571,-1.201 -3.085,-0.857 -0.501,0.327 -1.289,1.552 -1.386,1.705 l -2.56,-3.415 -1.707,-1.709 -4.977,-7.886 c 0.001,-0.109 0.001,-0.175 0.001,-0.175 0,0 -0.101,-0.094 -0.269,-0.249 l -14.535,-23.029 c 0.055,-0.304 0.128,-0.574 0.234,-0.89 0.343,-1.025 0.688,-0.685 0.343,-2.912 -0.343,-2.228 -0.343,-3.087 -0.684,-4.114 -0.344,-1.028 -1.371,-2.912 -1.715,-3.771 -0.343,-0.856 0.685,-2.399 0.685,-2.399 0,0 0.515,-2.227 0.171,-2.744 -0.34,-0.515 0.172,-1.543 0.172,-1.543 0,0 2.059,-1.199 2.743,-1.882 0.197,-0.198 0.438,-0.423 0.684,-0.657 l 38.494,-10.82 c 1.078,-0.218 1.519,0.089 1.959,-0.349 0.515,-0.515 1.197,-0.005 1.712,-0.681 l 17.891,-5.031 z"
           style="fill:#facc09;fill-opacity:1;fill-rule:nonzero;stroke:none"
           id="path99325"
           inkscape:connector-curvature="0" /><path
           d="m 246.557,295.292 c 0.172,-0.516 1.54,-2.916 1.712,-3.432 0.171,-0.512 1.543,-2.398 1.887,-2.911 0.343,-0.515 2.054,-2.403 2.054,-2.403 0,0 2.228,-1.712 2.744,-2.398 0.515,-0.685 2.058,-1.029 2.571,-1.541 0.516,-0.516 1.715,-0.343 2.399,-0.859 0.687,-0.513 2.056,0.343 2.743,0 0.685,-0.341 2.572,0.343 3.087,0.688 0.512,0.339 1.711,1.541 2.571,1.027 0.856,-0.513 1.368,0 2.055,-0.171 0.684,-0.173 1.715,0.685 2.4,0.685 0.686,0 2.399,0.685 2.914,0.685 0.513,0 2.228,1.031 2.915,1.031 0.684,0 1.54,0.683 2.396,0.341 0.859,-0.341 0.516,0.685 2.059,0.171 0.226,-0.074 0.427,-0.126 0.612,-0.163 l -38.494,10.82 c 0.609,-0.578 1.252,-1.207 1.375,-1.57"
           style="fill:#f0e923;fill-opacity:1;fill-rule:nonzero;stroke:none"
           id="path99327"
           inkscape:connector-curvature="0" /><path
           d="m 287.347,285.012 c 0.001,-0.003 0.002,-0.003 0.003,-0.006 0.511,-0.687 1.369,-1.2 1.54,-1.887 0.173,-0.683 1.199,-1.371 1.199,-1.371 l 1.032,-0.172 c 0,0 1.37,1.031 1.712,0.343 0.343,-0.687 1.886,-0.515 1.886,-0.515 l 1.542,-1.712 0.515,-0.686 c 0,0 1.029,-2.743 0.854,-3.773 -0.167,-1.025 -0.167,-3.254 -0.684,-3.769 -0.512,-0.513 -0.855,-2.744 -0.855,-2.744 0,0 -0.688,-0.684 0.855,-2.055 1.544,-1.372 2.573,-2.572 3.087,-3.255 0.516,-0.687 1.887,-2.572 2.056,-3.769 0.126,-0.882 0.346,-1.488 0.724,-2.357 l 2.425,22.697 z"
           style="fill:#f0e923;fill-opacity:1;fill-rule:nonzero;stroke:none"
           id="path99329"
           inkscape:connector-curvature="0" /><path
           d="m 228.556,426.345 c 0.592,0.146 1.135,0.238 1.55,0.238 1.543,0 4.114,0.772 7.713,1.543 3.598,0.772 3.598,-0.513 5.142,0.772 1.543,1.287 2.055,1.544 2.314,3.087 0.257,1.543 -1.031,2.312 0.257,5.397 1.284,3.087 2.055,0.257 6.942,2.056 4.885,1.803 1.027,3.6 3.342,5.658 2.315,2.056 1.8,1.8 5.142,3.343 3.343,1.542 0,0 -0.256,2.055 -0.26,2.059 -2.571,0 -4.371,1.543 -1.802,1.544 -3.086,-0.256 -4.371,-0.256 -1.286,0 -3.085,-0.514 -6.685,-0.259 -0.787,0.058 -1.546,0.062 -2.276,0.045 l -21.702,-26.102 z"
           style="fill:#f2561a;fill-opacity:1;fill-rule:nonzero;stroke:none"
           id="path99331"
           inkscape:connector-curvature="0" /><path
           d="m 253.926,338.14 c -1.03,-0.688 -2.402,-2.228 -2.402,-2.228 0,0 -0.856,-1.031 -1.368,-1.371 -0.516,-0.345 -1.372,-1.371 -2.059,-2.4 -0.684,-1.03 -1.371,-1.715 -1.712,-2.23 -0.343,-0.513 -1.374,-1.712 -1.887,-3.599 -0.515,-1.887 -1.886,-4.112 -1.886,-4.112 l -0.344,-0.859 c 0.121,-2.017 0.157,-2.883 0.281,-3.567 l 14.535,23.029 c -0.654,-0.598 -2.34,-2.119 -3.158,-2.663"
           style="fill:#f9aa0c;fill-opacity:1;fill-rule:nonzero;stroke:none"
           id="path99333"
           inkscape:connector-curvature="0" /><path
           d="m 262.323,349.108 -3.427,-1.884 -0.515,-1.543 c 0,0 -1.371,-1.372 -1.2,-2.23 0.137,-0.682 0.166,-1.796 0.171,-2.224 l 4.977,7.886 z"
           style="fill:#f9aa0c;fill-opacity:1;fill-rule:nonzero;stroke:none"
           id="path99335"
           inkscape:connector-curvature="0" /><path
           d="m 275.005,378.462 c 0.484,-0.612 1.033,-1.932 1.033,-1.932 0,0 1.371,0.173 0.515,-1.027 -0.856,-1.2 0.343,-1.543 -0.515,-3.086 -0.856,-1.543 -0.856,-0.513 -1.543,-0.856 -0.684,-0.345 -1.712,-1.544 -3.599,-0.517 -1.887,1.032 -3.255,1.543 -5.486,1.715 -2.227,0.173 -0.683,0.513 -2.227,-0.683 -1.544,-1.202 -1.885,-2.572 -1.712,-4.114 0.171,-1.543 0.34,-3.6 -0.173,-4.629 -0.515,-1.03 -0.515,-2.057 -0.172,-3.601 0.342,-1.543 1.373,-2.228 1.373,-2.228 0,0 2.399,-0.342 2.911,-0.514 0.37,-0.124 1.007,0.106 1.845,-0.072 l 14.715,23.315 z"
           style="fill:#f9aa0c;fill-opacity:1;fill-rule:nonzero;stroke:none"
           id="path99337"
           inkscape:connector-curvature="0" /><path
           d="m 242.999,451.567 c -2.609,-0.064 -4.803,-0.445 -6.208,-0.045 -1.8,0.515 -3.6,-0.513 -7.97,0 -4.37,0.515 -5.142,0 -6.428,1.287 -0.776,0.777 -2.304,0.334 -4.184,-0.139 l 3.088,-27.205 z"
           style="fill:#f14c1c;fill-opacity:1;fill-rule:nonzero;stroke:none"
           id="path99339"
           inkscape:connector-curvature="0" /><path
           d="m 282.718,387.287 c -0.321,-0.441 -0.554,-0.741 -0.851,-0.816 -0.688,-0.172 -0.515,-0.513 -2.058,-0.684 -1.541,-0.173 -1.369,-0.345 -2.228,-0.516 -0.856,-0.17 0.172,-0.514 -1.715,-0.17 -0.177,0.031 -0.349,0.052 -0.515,0.067 l 6.619,-4.935 z"
           style="fill:#f57515;fill-opacity:1;fill-rule:nonzero;stroke:none"
           id="path99341"
           inkscape:connector-curvature="0" /><path
           d="m 223.922,423.508 c 0.392,0.585 -0.334,0.976 0.27,1.278 0.755,0.376 2.746,1.164 4.364,1.559 l -7.259,-0.88 z"
           style="fill:#f57515;fill-opacity:1;fill-rule:nonzero;stroke:none"
           id="path99343"
           inkscape:connector-curvature="0" /><path
           d="m 275.351,385.168 c -1.61,0.144 -2.708,-0.477 -2.396,-1.096 0.34,-0.685 6.681,-2.571 1.883,-2.4 -4.798,0.173 -3.255,-0.684 -2.227,-1.372 1.028,-0.683 1.543,-1.367 2.055,-1.542 0.104,-0.034 0.219,-0.144 0.339,-0.296 l 6.965,1.771 z"
           style="fill:#f68712;fill-opacity:1;fill-rule:nonzero;stroke:none"
           id="path99345"
           inkscape:connector-curvature="0" /><path
           d="m 219.639,421.691 c 0.303,0.082 0.62,0.171 0.954,0.266 2.228,0.637 3.054,1.141 3.329,1.551 l -2.625,1.957 z"
           style="fill:#f68712;fill-opacity:1;fill-rule:nonzero;stroke:none"
           id="path99347"
           inkscape:connector-curvature="0" /><path
           d="m 218.209,452.67 c -1.233,-0.31 -2.617,-0.633 -4.042,-0.633 h -7.201 c -2.313,0 -3.599,-0.256 -6.426,0.516 -2.828,0.768 -3.6,0 -6.686,0.512 -3.083,0.516 -3.855,0.516 -6.683,1.031 -2.109,0.383 -1.789,0.195 -3.727,-0.353 l 7.555,-5.643 c 1.712,0.414 3.907,0.931 5.939,1.367 3.599,0.772 -0.256,-1.545 1.286,-1.8 1.542,-0.256 -3.085,-2.315 -3.085,-2.315 0,0 -0.204,0.032 -0.562,0.075 l 26.72,-19.962 z"
           style="fill:#ef401e;fill-opacity:1;fill-rule:nonzero;stroke:none"
           id="path99349"
           inkscape:connector-curvature="0" /><path
           d="m 143.033,427.439 c 0,0 0.171,0.172 -1.028,0.513 -1.2,0.343 -1.2,-0.172 -1.372,1.371 -0.171,1.543 0.857,3.77 -0.855,3.087 -1.715,-0.687 -3.259,0.512 -4.459,-2.915 -0.468,-1.339 -1.382,-2.703 -2.383,-3.819 l 9.72,-0.023 c 0.014,0.817 0.377,1.786 0.377,1.786"
           style="fill:#f03f1e;fill-opacity:1;fill-rule:nonzero;stroke:none"
           id="path99351"
           inkscape:connector-curvature="0" /><path
           d="m 153.146,427.096 c 0.171,1.715 -0.513,1.199 -1.372,1.37 -0.857,0.173 0.343,-0.171 -2.571,-1.542 -2.823,-1.326 -2.106,-0.403 -3.928,-1.277 l 7.111,-0.018 c 0.405,0.393 0.699,0.866 0.76,1.467"
           style="fill:#f03f1e;fill-opacity:1;fill-rule:nonzero;stroke:none"
           id="path99353"
           inkscape:connector-curvature="0" /><path
           d="m 180.486,453.065 c -5.398,-1.028 -3.598,-1.028 -5.398,-2.312 -1.802,-1.286 -5.401,-1.286 -5.401,-1.286 l -10.284,-1.285 h -0.006 c 0,0 -0.519,-1.03 -1.278,-1.546 -0.772,-0.511 -1.544,-0.511 -0.257,-2.055 1.284,-1.543 1.284,-1.543 4.627,-1.8 3.343,-0.256 1.029,-0.515 1.029,-0.515 0,0 1.282,-0.772 3.085,-1.285 1.8,-0.515 0.769,-0.771 4.371,1.029 3.599,1.8 0.769,0.256 2.312,0 1.544,-0.257 0,0 1.544,1.8 1.543,1.798 4.626,1.542 7.197,2.315 2.571,0.771 5.141,1.027 6.17,1.286 0.449,0.111 1.481,0.369 2.802,0.689 l -7.555,5.643 c -0.66,-0.187 -1.583,-0.415 -2.958,-0.678"
           style="fill:#f03f1e;fill-opacity:1;fill-rule:nonzero;stroke:none"
           id="path99355"
           inkscape:connector-curvature="0" /><path
           d="m 201.824,426.326 c -0.772,-0.514 -2.316,-0.77 -4.886,-0.255 -0.809,0.161 -1.134,-0.085 -1.191,-0.545 l 25.55,-0.061 -26.72,19.962 c -1.099,0.133 -3.667,0.377 -6.38,0.181 -3.599,-0.256 -0.257,-2.311 0.771,-2.055 1.028,0.257 1.8,-0.515 4.63,-0.772 2.828,-0.256 2.312,-1.028 4.111,-2.571 1.803,-1.543 1.803,-1.284 3.087,-2.828 1.287,-1.543 0.771,-2.826 1.543,-4.37 0.772,-1.542 1.028,-4.369 1.028,-4.369 0,0 -0.772,-1.8 -1.543,-2.317"
           style="fill:#f03f1e;fill-opacity:1;fill-rule:nonzero;stroke:none"
           id="path99357"
           inkscape:connector-curvature="0" /><path
           d="m 173.542,430.183 c 0,0 2.827,2.57 -1.028,3.087 -3.858,0.511 -3.602,0.511 -5.658,1.797 -2.056,1.285 -2.314,1.8 -6.169,1.028 -3.858,-0.771 -5.143,-1.286 -5.143,-1.286 l -1.79,1.803 h -0.009 c -1.284,-1.285 -4.37,-3.084 -3.599,-3.856 0.771,-0.771 1.287,-3.601 2.831,-2.83 1.54,0.771 -0.26,3.344 5.654,1.287 5.914,-2.058 5.398,0.257 6.685,-2.83 0.427,-1.025 0.824,-1.961 1.137,-2.787 l 10.822,-0.025 -0.391,1.268 z"
           style="fill:#f03f1e;fill-opacity:1;fill-rule:nonzero;stroke:none"
           id="path99359"
           inkscape:connector-curvature="0" /><path
           d="m 195.991,245.928 c 0.859,2.399 0.688,0.683 1.372,1.543 0.687,0.856 0.684,1.715 1.715,2.399 1.027,0.685 2.227,3.428 2.569,5.142 0.343,1.716 -0.514,1.029 -0.169,2.227 0.343,1.201 -1.716,0.859 -2.4,2.055 -0.687,1.203 -1.031,0 -1.715,0.859 -0.684,0.858 -2.055,0.344 -2.571,1.717 -0.513,1.371 -2.915,0.856 -5.314,2.398 -2.399,1.542 -1.372,0.171 -2.912,0.513 -1.544,0.344 -3.087,0 -3.602,0.516 -0.512,0.513 -1.371,-1.372 -2.227,-0.172 -0.856,1.2 -0.856,0.512 -3.256,2.742 -1.571,1.458 -1.6,1.3 -2.009,1.162 l 19.459,-26.98 c 0.348,1.34 0.367,1.935 1.06,3.879"
           style="fill:#f79010;fill-opacity:1;fill-rule:nonzero;stroke:none"
           id="path99361"
           inkscape:connector-curvature="0" /><path
           d="m 195.747,425.526 c -0.127,-1.003 1.015,-3.027 1.191,-4.085 0.259,-1.54 0.516,-4.113 1.286,-5.143 0.773,-1.026 1.545,-2.827 2.828,-4.113 1.287,-1.284 2.059,-1.028 3.599,-2.311 1.543,-1.288 4.63,3.854 5.658,5.141 1.027,1.283 0.515,1.543 2.055,3.599 1.448,1.928 2.67,1.823 7.275,3.077 l 1.658,3.774 z"
           style="fill:#f36518;fill-opacity:1;fill-rule:nonzero;stroke:none"
           id="path99363"
           inkscape:connector-curvature="0" /><path
           d="m 166.856,422.212 c -0.768,-0.771 -1.027,-1.543 -3.598,-2.311 -2.571,-0.775 -3.599,-1.803 -1.8,-3.086 1.8,-1.287 5.142,-2.572 6.686,-3.344 1.543,-0.771 6.169,-1.027 3.855,1.544 -2.315,2.568 0.515,3.342 0.515,3.342 0,0 4.37,-3.342 2.827,0.513 -1.542,3.855 -2.57,3.855 -1.542,3.855 1.031,0 3.085,-1.284 3.085,-1.284 l 1.028,2.059 -0.637,2.071 -10.822,0.025 c 0.63,-1.66 0.919,-2.866 0.403,-3.384"
           style="fill:#f36518;fill-opacity:1;fill-rule:nonzero;stroke:none"
           id="path99365"
           inkscape:connector-curvature="0" /><path
           d="m 166.513,388.018 c 1.543,0 3.599,-0.345 4.799,0.515 1.2,0.855 3.602,2.227 3.942,2.914 0.344,0.685 1.715,1.713 1.715,1.713 0,0 1.543,1.542 0.684,2.227 -0.856,0.687 -1.712,2.231 -2.399,1.887 -0.684,-0.344 -0.169,-2.402 -1.541,-0.172 -1.371,2.227 -1.199,2.571 -1.886,3.086 -0.685,0.513 -1.371,0.172 -0.856,2.568 0.516,2.399 0.343,3.431 0.343,3.431 0,0 0.513,2.055 0,2.228 -0.515,0.171 -0.858,0.684 -1.714,0.171 -0.856,-0.516 -5.655,-2.914 -6.683,-3.431 -1.03,-0.512 -2.402,2.059 -1.887,3.26 0.516,1.199 0.172,0.514 -0.515,2.227 -0.684,1.714 -3.427,2.058 -4.455,2.058 -1.031,0 -3.427,1.541 -4.115,0.513 -0.684,-1.028 -4.282,-4.284 -4.97,-4.627 -0.508,-0.254 -1.204,1.462 -1.738,0.218 l 18.597,-20.847 c 1.212,0.043 2.197,0.061 2.679,0.061"
           style="fill:#f36518;fill-opacity:1;fill-rule:nonzero;stroke:none"
           id="path99367"
           inkscape:connector-curvature="0" /><path
           d="m 137.207,419.898 c 0,0 -0.344,2.399 0.34,2.056 0.687,-0.344 1.887,-0.856 2.058,-1.372 0.173,-0.512 0.173,-1.712 1.372,-0.34 1.2,1.372 2.743,1.883 4.112,2.57 1.371,0.685 3.429,0.513 4.629,1.2 0.779,0.444 1.917,0.89 2.668,1.617 l -7.111,0.018 c -0.059,-0.029 -0.121,-0.059 -0.186,-0.091 -2.056,-1.032 -2.228,-1.204 -2.4,-0.345 -0.027,0.138 -0.035,0.288 -0.033,0.442 l -9.72,0.023 c -0.488,-0.543 -0.996,-1.027 -1.483,-1.421 l 5.335,-5.98 c 0.324,0.785 0.419,1.623 0.419,1.623"
           style="fill:#f36518;fill-opacity:1;fill-rule:nonzero;stroke:none"
           id="path99369"
           inkscape:connector-curvature="0" /><path
           d="m 191.88,225.019 c 1.54,3.939 0.341,1.2 0.684,3.084 0.344,1.885 0.173,1.885 0.687,4.458 0.512,2.571 0.169,3.941 0.685,6.168 0.512,2.228 0,0 0.684,2.228 0.131,0.422 0.23,0.776 0.311,1.092 l -19.459,26.98 c -0.216,-0.072 -0.537,-0.139 -1.248,0.039 -1.307,0.327 -1.644,-0.523 -1.716,-0.879 0.002,0.048 0.004,0.112 0.004,0.19 0,1.202 0,0 0.171,1.202 0.169,1.197 0,0 -1.031,0.514 -1.027,0.515 -1.372,-0.171 -2.055,0 -0.685,0.172 -2.915,-0.857 -4.115,-1.027 -1.2,-0.172 1.544,1.027 2.915,3.77 1.372,2.742 -0.344,2.57 -1.2,5.314 -0.856,2.743 -2.227,2.915 -4.114,4.286 -1.884,1.372 -0.687,0.34 -1.884,0.34 -1.199,0 -2.402,0 -3.258,1.032 -0.856,1.028 -1.712,0.341 -2.227,1.372 -0.516,1.027 -1.028,1.198 -3.084,3.254 -1.972,1.969 -3.155,1.896 -4.456,2.187 L 124.359,231.17 c 1.232,-0.911 2.314,-1.524 3.76,-1.524 1.715,0 0.171,-1.543 2.23,-2.572 1.044,-0.522 0.895,-1.662 0.563,-3.017 l 59.28,-3.036 c 0.31,0.707 0.741,1.578 1.688,3.998"
           style="fill:#f2541b;fill-opacity:1;fill-rule:nonzero;stroke:none"
           id="path99371"
           inkscape:connector-curvature="0" /><path
           d="m 168.229,192.451 c 0.683,1.202 0,0 0.683,1.542 0.688,1.543 0.859,0.857 2.915,3.429 2.056,2.573 0.34,0.859 0.512,1.714 0.173,0.859 0.86,2.059 0.86,3.256 0,1.199 1.54,2.058 2.571,4.627 1.027,2.573 1.027,2.915 0,4.972 -1.031,2.056 2.398,3.084 3.254,3.256 0.857,0.168 3.6,0.856 5.828,1.544 2.229,0.687 1.198,0.34 3.086,1.369 1.883,1.03 1.199,-0.343 1.715,1.373 0.198,0.662 0.345,1.042 0.539,1.488 l -59.28,3.036 c -0.322,-1.316 -0.817,-2.832 -0.563,-4.184 0.097,-0.515 0.145,-1.037 0.163,-1.553 l 37.375,-26.33 c 0.129,0.141 0.245,0.293 0.342,0.461"
           style="fill:#e0621b;fill-opacity:1;fill-rule:nonzero;stroke:none"
           id="path99373"
           inkscape:connector-curvature="0" /><path
           d="m 132.406,416.471 c 1.202,0.34 3.257,0.169 3.942,1.029 0.18,0.224 0.324,0.496 0.44,0.775 l -5.335,5.98 c -0.475,-0.381 -0.929,-0.677 -1.326,-0.858 l -0.183,-7.88 c 1.08,0.451 1.993,0.82 2.462,0.954"
           style="fill:#f36218;fill-opacity:1;fill-rule:nonzero;stroke:none"
           id="path99375"
           inkscape:connector-curvature="0" /><path
           d="m 129.149,360.595 c 0.172,0.685 2.4,2.399 2.4,2.399 0,0 2.399,1.372 2.227,2.227 -0.171,0.856 3.087,2.4 3.6,2.4 0.515,0 3.257,-0.857 3.257,0.686 0,1.541 0,1.884 1.713,3.256 1.715,1.371 3.943,3.427 4.801,3.427 0.856,0 3.77,1.543 4.97,1.887 1.2,0.345 4.971,2.056 1.541,0 -3.427,-2.055 -1.2,-0.859 -1.884,-2.571 -0.684,-1.715 -1.199,-3.942 2.056,-1.372 3.258,2.571 3.087,3.086 4.286,3.256 1.2,0.172 0.343,-0.513 2.911,0.343 2.574,0.857 2.746,1.2 2.746,1.2 0,0 1.2,1.027 0.513,1.544 -0.685,0.512 0.687,1.2 -1.888,0.172 -2.567,-1.032 -2.398,-1.201 -4.111,-0.689 -1.714,0.517 -4.286,0.344 -2.399,2.059 1.883,1.712 4.283,2.228 2.74,2.914 -1.54,0.685 -5.482,-0.171 -5.998,-0.343 -0.513,-0.171 -1.713,0.172 -2.743,0 -1.029,-0.171 -0.684,1.373 0,1.713 0.688,0.343 2.915,1.374 5.657,2.058 1.885,0.47 5.631,0.698 8.29,0.796 l -18.597,20.847 c -0.188,-0.437 -0.356,-1.237 -0.489,-2.617 -0.515,-5.314 1.883,-6.858 -0.859,-7.201 -2.74,-0.34 -5.141,-1.884 -5.141,-1.884 0,0 -2.229,-0.172 -2.229,-1.543 0,-1.371 -0.856,-4.628 -1.883,-4.97 -1.028,-0.344 -3.603,0.171 -4.458,1.199 -0.857,1.028 0.171,4.798 0.171,4.798 l 1.543,1.545 c 0,0 -0.976,0.152 -2.342,0.384 l -0.895,-38.59 c 0.27,0.286 0.456,0.519 0.494,0.67"
           style="fill:#f36218;fill-opacity:1;fill-rule:nonzero;stroke:none"
           id="path99377"
           inkscape:connector-curvature="0" /><path
           d="m 152.114,149.431 c 0.859,0.511 0,0 -0.34,1.028 -0.343,1.026 -0.688,1.198 -0.515,2.914 0.172,1.711 0.855,1.884 1.712,3.77 0.859,1.884 0.172,1.2 0.172,3.943 0,0.606 -0.059,1.037 -0.167,1.338 l -13.618,-3.532 1.275,-2.436 c 0,0 2.571,-3.769 3.428,-4.458 0.859,-0.685 3.427,-1.884 4.629,-2.567 l 0.006,0.022 c 0,0 2.565,-0.514 3.418,-0.022"
           style="fill:#c22823;fill-opacity:1;fill-rule:nonzero;stroke:none"
           id="path99379"
           inkscape:connector-curvature="0" /><path
           d="m 150.399,162.798 c -1.543,-0.173 -0.512,2.058 -0.339,2.572 0.168,0.514 0.511,1.197 1.371,2.057 0.856,0.856 0.856,1.372 0.856,1.372 0,0 0.511,1.885 -0.344,2.915 -0.857,1.027 -0.684,1.369 -1.544,1.712 -0.856,0.343 -0.339,2.399 -0.339,2.399 l 1.199,0.344 0.34,-0.859 c 0,0 2.059,-0.513 2.915,0 0.859,0.515 0.515,1.887 0.343,4.286 -0.171,2.399 0.516,0.859 0.857,1.544 0.343,0.682 2.057,-0.516 2.743,-0.86 0.684,-0.341 1.027,0.515 1.543,0.515 0.512,0 1.199,2.227 2.398,2.744 1.201,0.514 0,0 0.517,0.687 0.511,0.683 0.511,0.683 1.198,1.882 0.685,1.204 -1.886,1.543 -3.426,2.745 -1.543,1.198 -2.059,1.885 -1.716,3.085 0.345,1.197 0.685,-0.515 3.256,-1.2 2.571,-0.687 2.399,-0.171 3.086,-0.514 0.685,-0.345 0.516,0.514 0.516,0.514 0,0 1.266,0.382 2.058,1.252 l -37.375,26.33 c 0.076,-2.218 -0.409,-4.295 0.009,-5.129 0.512,-1.03 -0.515,-4.114 0.34,-6.685 0.86,-2.571 0,-5.485 0.345,-6.854 0.343,-1.376 0.686,-7.717 0.686,-7.717 l 1.028,-13.883 c 0,0 0.688,-1.198 1.372,-1.371 0.685,-0.173 1.2,-2.4 1.884,-2.739 0.687,-0.345 0.687,-1.716 1.2,-3.258 0.515,-1.544 0.515,-1.716 1.372,-2.228 0.857,-0.513 -0.17,-1.889 -0.17,-2.399 0,-0.516 -1.031,-1.201 -1.543,-2.232 -0.516,-1.027 1.713,-3.767 1.713,-3.767 l 0.61,-1.166 13.618,3.532 c -0.381,1.057 -1.374,0.508 -2.577,0.374"
           style="fill:#d63822;fill-opacity:1;fill-rule:nonzero;stroke:none"
           id="path99381"
           inkscape:connector-curvature="0" /><path
           d="m 124.692,413.384 c 1.463,0.523 3.563,1.428 5.252,2.133 l 0.183,7.88 c -0.5,-0.227 -0.909,-0.272 -1.149,-0.072 -0.085,0.071 -0.163,0.136 -0.237,0.198 l -8.955,-13.431 c 1.585,1.359 3.583,2.821 4.906,3.292"
           style="fill:#f1501b;fill-opacity:1;fill-rule:nonzero;stroke:none"
           id="path99383"
           inkscape:connector-curvature="0" /><path
           d="m 120.804,351.917 c 1.319,0.805 3.544,2.336 3.544,2.336 0,0 1.028,0.512 1.2,1.884 0.134,1.071 2.147,2.768 3.107,3.788 l 0.895,38.59 c -3.212,0.546 -8.575,1.534 -8.457,2.013 0.172,0.688 -3.256,1.885 -3.599,2.916 -0.212,0.634 -0.359,1.727 -0.359,2.672 L 84.948,357.833 Z"
           style="fill:#f1501b;fill-opacity:1;fill-rule:nonzero;stroke:none"
           id="path99385"
           inkscape:connector-curvature="0" /><path
           d="m 125.464,433.784 c 1.027,3.598 -4.371,-1.028 -5.914,-0.256 -0.896,0.447 -1.879,0.025 -2.848,-0.303 l 7.641,-4.276 c 2.159,0.328 0.15,1.433 1.121,4.835"
           style="fill:#ee2e21;fill-opacity:1;fill-rule:nonzero;stroke:none"
           id="path99387"
           inkscape:connector-curvature="0" /><path
           d="m 98.297,308.148 c -1.2,0.685 -3.599,0.856 -5.142,0.856 -0.475,0 -0.985,-0.048 -1.47,-0.122 l 6.846,-0.881 c -0.067,0.047 -0.143,0.096 -0.234,0.147"
           style="fill:#f36019;fill-opacity:1;fill-rule:nonzero;stroke:none"
           id="path99389"
           inkscape:connector-curvature="0" /><path
           d="m 107.382,332.313 c 0,0 1.2,-2.572 1.711,-2.055 0.516,0.513 1.545,1.883 1.545,1.883 0,0 1.714,1.029 0.514,4.629 -0.016,0.049 -0.029,0.094 -0.045,0.141 l -4.148,-3.29 c 0.213,-0.843 0.423,-1.308 0.423,-1.308"
           style="fill:#f36019;fill-opacity:1;fill-rule:nonzero;stroke:none"
           id="path99391"
           inkscape:connector-curvature="0" /><path
           d="m 89.572,309.154 c 0.52,1.498 1.789,4.532 2.04,5.162 0.344,0.859 1.887,4.63 1.887,5.142 0,0.515 0.516,0.687 -0.513,1.37 -0.392,0.261 -0.881,0.472 -1.394,0.605 l -5.283,-4.19 c -0.486,-0.968 -0.993,-1.711 -1.552,-1.896 -0.476,-0.159 -1.173,-0.466 -1.785,-0.751 l -4.983,-3.952 z"
           style="fill:#f36019;fill-opacity:1;fill-rule:nonzero;stroke:none"
           id="path99393"
           inkscape:connector-curvature="0" /><path
           d="m 148,290.663 c -1.371,0.343 -1.715,0.685 -4.114,2.572 -0.877,0.689 -1.295,0.874 -1.448,0.915 0.127,0.016 0.396,0.148 0.592,0.799 0.512,1.713 -3.599,0.17 -6.514,0.686 -2.914,0.513 -2.743,-0.858 -3.255,0.17 -0.515,1.029 -1.031,0.857 -2.572,1.373 -1.542,0.51 -1.885,0.683 -2.742,1.543 -0.856,0.855 -0.343,-0.173 -1.715,-3.255 -1.372,-3.087 -0.34,-1.888 -1.028,-2.575 -0.684,-0.684 -1.883,-1.197 -1.369,1.375 0.513,2.568 0,0.683 -1.543,4.282 -1.543,3.6 -2.401,-1.886 -2.915,-1.886 -0.514,0 -2.57,-0.514 -2.57,-0.514 0,0 -2.743,-3.769 -4.286,-4.8 -1.543,-1.028 -1.887,-1.711 -1.371,-2.741 0.515,-1.031 -0.341,-2.229 1.371,-3.601 1.715,-1.371 -1.2,-2.399 -1.2,-3.943 0,-1.54 -2.056,-3.769 -2.056,-3.769 l -2.571,-4.283 c 0,0 -1.543,-2.744 -2.571,-3.604 -1.027,-0.855 -1.199,-2.738 0,-3.77 1.2,-1.028 0.688,-1.544 1.028,-2.055 0.345,-0.517 -2.227,-2.059 -2.227,-2.059 l -0.001,-0.004 4.932,-9.716 c 0.504,-0.88 1.083,-1.87 1.583,-2.62 0.53,-0.797 0.878,-1.866 1.186,-2.833 l 3.397,-6.693 c 0.967,-0.78 3.51,-2.85 4.329,-3.67 0.856,-0.859 3.771,-3.087 5.315,-4.286 0.239,-0.185 0.468,-0.363 0.694,-0.531 l 23.815,59.453 c -0.057,0.013 -0.115,0.025 -0.174,0.04"
           style="fill:#f1511b;fill-opacity:1;fill-rule:nonzero;stroke:none"
           id="path99395"
           inkscape:connector-curvature="0" /><path
           d="m 80.338,306.015 c 0.281,-0.181 0.6,-0.393 0.992,-0.784 0.857,-0.856 1.712,-0.684 2.571,-1.371 0.856,-0.685 1.541,-0.685 2.572,-0.685 1.027,0 1.027,0 1.712,-0.172 0.684,-0.17 1.027,0.516 1.714,-0.343 0.685,-0.856 1.2,-1.371 1.713,-2.228 0.515,-0.856 1.715,-0.856 1.887,-2.227 0.171,-1.371 0.512,-1.202 0.512,-2.4 0,-1.202 0.687,-1.713 1.199,-2.058 0.516,-0.345 2.4,-2.056 2.4,-2.056 l 2.571,-0.515 2.058,-1.539 2.17,-0.688 0.061,0.003 -1.199,1.711 c 0,0 -0.516,1.031 -1.372,1.202 -0.859,0.17 -2.743,2.401 -2.743,2.401 0,0 -0.859,0.683 -0.859,1.882 0,1.201 -0.684,3.085 -0.172,5.144 0.516,2.054 0.687,4.627 0.516,5.312 -0.159,0.634 0.706,0.829 -0.11,1.397 l -6.846,0.881 c -1.088,-0.163 -2.062,-0.445 -2.3,-0.565 -0.091,-0.045 0,0.297 0.187,0.837 l -11.583,1.49 z"
           style="fill:#f1511b;fill-opacity:1;fill-rule:nonzero;stroke:none"
           id="path99397"
           inkscape:connector-curvature="0" /><path
           d="m 77.982,307.721 c 0.507,-0.328 1.108,-0.474 1.462,-0.946 0.28,-0.373 0.56,-0.545 0.894,-0.76 l -2.349,4.629 z"
           style="fill:#ef2e21;fill-opacity:1;fill-rule:nonzero;stroke:none"
           id="path99399"
           inkscape:connector-curvature="0" /><path
           d="m 102.58,258.783 c 0,0 3.771,-4.458 4.114,-4.97 0.178,-0.266 0.627,-1.076 1.161,-2.01 l -4.932,9.716 z"
           style="fill:#ef2e21;fill-opacity:1;fill-rule:nonzero;stroke:none"
           id="path99401"
           inkscape:connector-curvature="0" /><path
           d="m 111.496,244.213 c 0.684,-0.856 1.54,-3.772 2.399,-4.455 0.037,-0.029 0.082,-0.066 0.126,-0.101 l -3.397,6.693 c 0.288,-0.908 0.54,-1.722 0.872,-2.137"
           style="fill:#ef2e21;fill-opacity:1;fill-rule:nonzero;stroke:none"
           id="path99403"
           inkscape:connector-curvature="0" /><path
           d="m 82.972,314.596 c -0.708,-0.327 -1.301,-0.624 -1.301,-0.624 0,0 -2.114,0.142 -3.148,0.297 l -0.534,-3.625 z"
           style="fill:#f2561a;fill-opacity:1;fill-rule:nonzero;stroke:none"
           id="path99405"
           inkscape:connector-curvature="0" /><path
           d="m 89.212,321.345 c -1.027,-0.517 -0.856,0.684 -1.712,-1.372 -0.391,-0.941 -0.783,-1.914 -1.191,-2.73 l 5.283,4.19 c -0.838,0.218 -1.74,0.23 -2.38,-0.088"
           style="fill:#f2561a;fill-opacity:1;fill-rule:nonzero;stroke:none"
           id="path99407"
           inkscape:connector-curvature="0" /><path
           d="m 82.267,339.655 c 0.31,0.151 0.629,0.28 0.947,0.371 1.2,0.343 2.23,0.685 3.087,0.685 0.855,0 3.084,1.886 3.427,0 0.344,-1.884 1.886,-1.201 2.743,-1.372 0.856,-0.172 1.028,-1.027 2.399,1.2 1.371,2.23 2.743,2.915 2.743,2.401 0,-0.514 2.227,0.17 2.571,-0.343 0.34,-0.515 1.027,0.343 2.227,-0.684 1.199,-1.03 2.916,-1.202 2.743,-1.715 -0.172,-0.516 0.684,-0.516 0.684,-1.028 0,-0.514 0.688,1.199 0.688,-1.887 0,-1.555 0.217,-2.804 0.433,-3.662 l 4.148,3.29 c -1.13,3.484 -0.303,4.502 -0.642,5.686 -0.344,1.2 -0.344,1.886 1.715,3.428 2.056,1.542 7.026,4.972 8.226,5.657 0.118,0.067 0.253,0.147 0.398,0.235 l -35.856,5.916 z"
           style="fill:#f2561a;fill-opacity:1;fill-rule:nonzero;stroke:none"
           id="path99409"
           inkscape:connector-curvature="0" /><path
           d="m 117.135,406.116 c 0,0.585 0.056,1.113 0.187,1.442 0.155,0.385 1.173,1.425 2.464,2.534 l 8.955,13.431 c -0.823,0.684 -1.034,0.829 -1.819,0.829 -0.859,0 -2.058,1.029 -3.601,1.2 -1.543,0.172 -6.171,0.172 -7.37,0 -1.2,-0.171 -2.571,0.687 -3.599,-0.343 -1.028,-1.027 -2.571,-2.399 -2.571,-2.915 0,-0.512 -1.543,1.888 -2.056,1.715 -0.516,-0.172 -1.887,0.687 -3.427,0.687 -1.543,0 -2.574,0.856 -3.087,0.856 -0.512,0 0.513,1.372 0,1.544 -0.364,0.122 -6.111,0.332 -9.396,0.442 l -6.867,-69.705 z"
           style="fill:#f03e1e;fill-opacity:1;fill-rule:nonzero;stroke:none"
           id="path99411"
           inkscape:connector-curvature="0" /><path
           d="m 105.667,427.611 c 0.515,-0.768 1.027,0.26 3.343,-0.256 2.314,-0.512 1.283,-0.512 3.342,0.516 2.055,1.027 3.084,0.255 4.371,-0.516 1.287,-0.772 4.37,1.288 7.197,1.543 0.157,0.014 0.296,0.031 0.423,0.051 l -7.641,4.276 c -0.698,-0.238 -1.389,-0.428 -2.035,-0.213 -1.543,0.516 -3.599,2.315 -5.398,3.855 -1.803,1.544 -4.115,-0.255 -5.659,0.772 -1.542,1.028 -5.654,-2.572 -7.197,-4.111 h 0.006 c 0,0 2.055,0.256 3.078,-0.516 1.027,-0.772 2.315,-0.515 3.855,-0.515 1.543,0 0.771,0.256 0.515,-2.055 -0.257,-2.316 1.284,-2.059 1.8,-2.831"
           style="fill:#f03e1e;fill-opacity:1;fill-rule:nonzero;stroke:none"
           id="path99413"
           inkscape:connector-curvature="0" /><path
           d="m 66.597,309.17 c 0.695,-0.343 2.734,-0.683 2.734,-0.683 0,0 1.372,-0.344 1.887,-0.513 0.512,-0.172 2.055,-0.172 2.055,-0.172 0,0 1.372,1.028 1.888,0.685 0.511,-0.342 1.712,0.687 2.227,-0.17 0.159,-0.265 0.367,-0.449 0.594,-0.596 l 0.007,2.923 z"
           style="fill:#ef381f;fill-opacity:1;fill-rule:nonzero;stroke:none"
           id="path99415"
           inkscape:connector-curvature="0" /><path
           d="m 44.351,382.413 -0.73,-2.624 c 0,0 -1.37,-2.571 -2.571,-3.943 -1.2,-1.368 -2.74,-3.087 -3.6,-4.283 -0.856,-1.199 -1.543,-3.258 -2.742,-4.457 -1.197,-1.201 -2.228,-0.685 -1.884,-3.256 0.344,-2.57 0,-5.314 0.344,-7.2 0.343,-1.885 1.199,-4.456 1.883,-5.483 0.688,-1.031 1.199,-1.031 2.399,-1.888 1.2,-0.855 2.743,-1.886 2.571,-2.741 -0.005,-0.03 -0.01,-0.066 -0.016,-0.108 l 44.943,11.403 z"
           style="fill:#e93d1f;fill-opacity:1;fill-rule:nonzero;stroke:none"
           id="path99417"
           inkscape:connector-curvature="0" /><path
           d="m 7.457,404.296 c 0.127,0.085 0.251,0.161 0.372,0.229 l -0.99,0.599 c -0.857,-1.198 -1.251,-2.072 0.618,-0.828"
           style="fill:#e93d1f;fill-opacity:1;fill-rule:nonzero;stroke:none"
           id="path99419"
           inkscape:connector-curvature="0" /><path
           d="m 34.536,429.323 c -0.856,0.513 -5.142,-1.887 -5.998,-1.714 -0.856,0.171 -4.115,-0.173 -4.971,-0.685 -0.777,-0.468 -4.247,-1.361 -3.842,-2.161 l 15.343,4.433 c -0.239,0.021 -0.423,0.061 -0.532,0.127"
           style="fill:#de2125;fill-opacity:1;fill-rule:nonzero;stroke:none"
           id="path99421"
           inkscape:connector-curvature="0" /><path
           d="m 12.427,405.497 c 1.713,0.858 3.427,1.028 4.455,1.715 1.028,0.687 1.543,1.711 3.087,2.227 1.543,0.516 0.512,-0.172 0.683,-1.027 0.172,-0.857 0,-1.029 1.029,-0.342 1.03,0.685 1.03,0.169 2.402,1.029 1.369,0.856 2.912,1.712 3.939,1.198 1.031,-0.515 1.372,-0.515 2.06,-0.515 0.683,0 -0.857,0.173 0.683,0 1.544,-0.172 -0.683,0.515 4.458,-0.683 5.142,-1.2 6.514,-0.344 6.854,-2.231 0.344,-1.885 1.031,0.174 1.887,-1.028 0.856,-1.197 1.371,-0.172 1.884,-2.227 0.515,-2.057 0,-7.714 -0.341,-8.397 -0.343,-0.689 -0.515,-0.689 -0.343,-2.231 0.171,-1.54 2.227,-8.913 1.544,-9.426 -0.688,-0.512 -2.228,-0.683 -2.228,-0.683 l -0.129,-0.463 40.597,-24.58 6.867,69.705 c -1.331,0.045 -2.259,0.073 -2.259,0.073 0,0 -3.599,1.369 -4.971,1.196 -1.371,-0.171 -5.141,-0.341 -8.056,-0.855 -2.915,-0.513 -7.198,-2.228 -8.57,-2.4 -1.371,-0.171 -4.457,-0.171 -4.97,0.684 -0.514,0.86 0.172,0.688 -0.514,0.86 -0.685,0.168 -0.173,0.513 -1.713,1.711 -1.543,1.201 0.684,2.229 -2.399,2.229 -3.087,0 -4.971,0.172 -7.714,0 -2.743,-0.17 -8.399,-1.541 -9.084,-1.37 -0.598,0.149 -4.855,-0.617 -6.497,-0.47 l -15.343,-4.433 c 0.04,-0.081 0.119,-0.16 0.244,-0.239 1.371,-0.858 1.199,-1.714 1.371,-2.23 0.172,-0.512 -1.371,-1.712 -1.371,-1.712 0,0 -0.344,0 -2.228,0.685 -1.887,0.687 -3.942,1.027 -4.801,0.515 -0.857,-0.515 -2.4,-1.544 -2.056,-2.23 0.344,-0.684 2.743,-2.227 3.086,-1.713 0.341,0.512 1.2,1.541 2.228,1.369 1.028,-0.172 2.572,0.688 1.199,-1.028 -1.371,-1.712 -2.57,-2.571 -3.427,-2.743 -0.859,-0.168 -2.914,-0.341 -4.799,-0.513 -1.885,-0.171 -1.714,0.685 -3.429,-1.03 -1.712,-1.712 -2.399,-0.685 -2.743,-2.572 -0.341,-1.883 -0.684,-1.883 0,-2.399 0.687,-0.511 -1.372,-0.684 0.172,-1.198 1.543,-0.513 3.427,-1.029 3.258,-1.542 -0.175,-0.515 1.712,0.685 0.684,-0.686 -0.094,-0.127 -0.186,-0.252 -0.274,-0.373 l 0.99,-0.599 c 1.834,1.023 2.989,0.168 4.598,0.972"
           style="fill:#ed3520;fill-opacity:1;fill-rule:nonzero;stroke:none"
           id="path99423"
           inkscape:connector-curvature="0" /><path
           d="m 40.005,346.43 c -0.131,-1.114 0.188,-6.063 0.188,-6.063 0,0 1.028,-1.715 1.2,-3.599 0.172,-1.887 1.371,-3.771 1.371,-3.771 l 0.075,-0.16 2.382,-1.504 c -0.11,0.586 -0.191,1.211 -0.398,1.837 -0.343,1.026 0.169,2.227 -0.859,3.77 -1.027,1.541 -1.027,1.712 -1.54,3.255 -0.516,1.543 -1.199,3.256 -0.516,3.599 0.688,0.344 1.2,2.571 2.572,0 1.371,-2.568 1.543,-1.885 1.714,-3.942 0.169,-2.056 0.685,-2.744 1.2,-3.6 0.512,-0.855 1.712,-3.77 2.399,-4.97 0.685,-1.199 0,0.687 1.541,-1.712 1.041,-1.621 1.458,-2.382 1.883,-3.286 l 24.772,-15.64 0.534,3.625 c -0.105,0.014 -0.2,0.03 -0.279,0.047 -0.856,0.172 -4.455,2.055 -5.142,3.255 -0.685,1.202 -1.028,3.774 -1.028,4.973 0,1.2 1.884,4.799 1.715,5.655 -0.171,0.855 1.883,4.286 1.712,4.798 -0.172,0.516 0.343,2.23 0.859,2.915 0.513,0.683 3.084,1.543 3.77,2.228 0.503,0.504 1.283,1.097 2.137,1.515 l 2.681,18.178 z"
           style="fill:#f14d1c;fill-opacity:1;fill-rule:nonzero;stroke:none"
           id="path99425"
           inkscape:connector-curvature="0" /><path
           d="m 46.023,326.484 c 0,0.068 -0.001,0.082 -0.011,0.119 0.007,-0.098 0.011,-0.144 0.011,-0.119"
           style="fill:#f1471d;fill-opacity:1;fill-rule:nonzero;stroke:none"
           id="path99427"
           inkscape:connector-curvature="0" /><path
           d="m 43.792,330.766 c 0,0 0.516,-0.171 1.2,-1.539 0.687,-1.372 0.687,-1.372 0.859,-2.059 0.104,-0.411 0.144,-0.512 0.161,-0.565 -0.043,0.565 -0.211,2.921 -0.505,3.652 -0.135,0.336 -0.216,0.699 -0.286,1.078 l -2.382,1.504 z"
           style="fill:#f1471d;fill-opacity:1;fill-rule:nonzero;stroke:none"
           id="path99429"
           inkscape:connector-curvature="0" /><path
           d="m 53.217,326.284 c 0.205,-0.435 0.411,-0.903 0.691,-1.515 0.856,-1.884 1.371,-1.884 1.884,-3.256 0.515,-1.371 0.171,-1.028 -0.172,-2.571 -0.344,-1.539 0.343,-3.254 0.343,-3.254 0,0 2.4,-0.86 2.571,-1.372 0.17,-0.517 2.571,-1.371 2.915,-2.055 0.341,-0.689 2.569,-1.544 2.569,-1.544 0,0 1.886,-1.2 2.57,-1.543 0.003,-10e-4 0.006,-0.003 0.009,-0.004 l 11.392,1.474 z"
           style="fill:#f1471d;fill-opacity:1;fill-rule:nonzero;stroke:none"
           id="path99431"
           inkscape:connector-curvature="0" /></g></g></g></svg>